<svg xmlns="http://www.w3.org/2000/svg" xml:space="preserve" viewBox="0 0 1170.326 800"><path d="M150.525 274.669c67.023 9.87 115.035 5.24 170.237-1.584 43.625-5.362 94.196-6.459 104.432 11.82 6.337 11.333 13.16 16.085 11.82 30.099-1.096 11.82 1.219 16.207-2.071 24.737-2.681 7.19-3.656 1.828-5.727 9.383-2.316 8.652-3.047 11.09 5.24 26.443 9.748 17.914 26.565 38.386 35.216 46.185 1.95 1.706 4.875-.244 4.022-2.681-5.85-16.938-21.204-63.245-11.211-104.92 5.483-22.544 26.443-25.225 30.099-53.252 3.656-27.784-77.99-28.88-92.978-28.88-14.989 0-100.777 12.55-172.673 14.135-71.897 1.584-112.11-4.021-222.148-28.393-16.573-3.656 13.526 40.579 35.339 44.234 26.687 4.51 66.169 6.093 110.403 12.674"/><path d="M297.609 316.954a953 953 0 0 0 42.04-7.312c23.641-4.509 46.307-9.505 67.754-14.867 1.462-.365 2.437-1.95 2.071-3.412a19.6 19.6 0 0 0-3.899-7.311c-5.24-6.093-14.136-8.53-23.153-6.459-13.526 1.463-27.54 2.803-41.797 3.9-32.05 2.315-62.514 3.29-91.394 3.046.73 4.509 2.68 12.064 8.408 18.888 14.136 16.817 38.02 13.77 39.97 13.527m8.042 43.016c14.136-4.022 28.637-8.287 43.382-13.04 27.54-8.895 53.617-18.278 78.11-27.905.488-1.097 2.316-5.727.366-11.089-1.584-4.63-4.996-6.946-6.092-7.677a729 729 0 0 1-61.783 14.257c-30.586 5.606-62.147 8.652-87.738 10.115-.974 3.29 1.097 9.87 3.656 16.938 4.265 10.845 16.207 18.157 30.1 18.4m23.762 34.731c8.408-1.707 12.917-3.047 22.421-6.094 28.393-9.261 48.135-23.153 64.342-35.095 1.218-3.534 5.118-9.14 3.655-15.963-.365-1.585-.73-3.047-1.218-4.387-22.666 9.992-47.769 19.74-75.552 28.393q-21.02 6.58-40.58 11.333c-.121 1.34-.852 9.26 4.875 15.841 6.702 7.799 21.082 6.093 22.057 5.971m10.236 38.751c4.874 2.315 12.064.853 14.744.488 7.8-4.144 13.405-7.556 21.57-12.552 18.887-11.576 35.46-23.64 49.961-35.339.366-1.097 1.828-5.97-.853-11.333-2.437-4.874-6.58-6.824-7.677-7.311-13.404 8.408-29.002 17.06-46.671 25.225-15.476 7.067-32.537 11.454-45.941 15.841-.488 10.48 6.824 21.082 14.867 24.981m36.07 34.364c6.093 1.34 11.333.488 14.623-.365 10.601-8.774 21.934-18.767 33.51-31.44 8.165-8.896 12.918-17.67 19.133-25.956-.488-2.315.243-10.358-6.946-14.988-1.828-1.219-3.656-1.95-5.24-2.437-8.409 8.53-18.523 17.669-30.465 26.808a285 285 0 0 1-44.113 27.54c-1.95.975-2.559 3.412-1.462 5.24 3.047 4.753 9.749 13.04 20.96 15.598m23.397 10.236c3.533 1.706 9.139 3.778 13.038 4.63 5.362 1.098 11.211 2.804 12.552 2.194 2.924-1.95 6.336-9.139 9.383-11.576 17.182-14.136 24.128-29.977 28.88-42.772-.73-1.585-2.071-3.778-4.021-5.972-3.778-3.899-7.92-5.361-10.114-5.97-7.8 12.673-16.086 22.056-28.515 36.07-4.874 5.483-15.354 13.648-21.69 19.131-1.463 1.219-1.22 3.412.487 4.265m49.961 18.766c6.093.366 10.237-3.412 10.968-4.02a99.3 99.3 0 0 1 8.164-28.881c2.56-5.728 5.362-10.602 8.165-14.623 0-.366.487-4.387-2.437-6.946-1.463-1.219-3.169-1.584-3.9-1.584-2.559 4.02-3.9 9.26-6.58 13.404-8.287 12.551-17.913 23.153-26.444 34.12 2.194 4.875 6.825 8.165 12.064 8.53M85.697 315.248c42.407-1.22 60.685-3.9 112.353-12.43 8.896-1.462 22.544-1.828 39.239-2.437 1.828-.122 3.168-1.584 3.046-3.412-.244-1.828-.853-4.022-2.68-5.971-2.925-3.29-6.825-3.656-7.556-3.656-57.76-4.753-115.644-9.505-173.404-14.257-5.24-.122-15.476.609-25.713 6.945-2.802 1.828-5.24 3.656-7.19 5.606-1.096.975-1.218 2.68-.487 3.9a71.7 71.7 0 0 0 9.262 12.185c6.458 6.702 13.038 10.846 17.913 13.283 7.677.244 19.985.731 35.217.244m121.005 15.232c15.964-4.996 31.196-10.114 46.063-15.598 0-.853-.122-2.56-1.219-4.265-1.706-2.803-4.509-3.534-5.24-3.656a829.6 829.6 0 0 1-155.613 16.085c-10.602.122-21.081 0-31.44-.243-2.437 1.462-9.87 6.336-10.601 13.648-1.097 9.992 9.992 22.544 28.637 24.98 40.213-6.701 83.594-16.694 129.413-30.951m55.689 13.16c.732-.852 3.9-4.874 3.412-10.723-.121-1.584-.487-2.925-.974-4.021-.975-2.316-3.534-3.29-5.85-2.56-26.321 8.043-42.163 15.72-77.867 24.25-34.608 8.287-66.535 14.745-95.293 18.523-.975.731-14.989 7.555-14.014 18.522 1.097 11.699 18.644 25.225 38.142 22.179 41.797-17.792 83.716-35.949 125.757-54.593 8.896-3.656 17.792-7.677 26.687-11.576m3.047 35.948c4.63-2.925 8.53-5.606 11.942-7.921 3.046-2.072 3.9-6.337 1.828-9.383q-1.463-2.193-3.656-4.387a26.4 26.4 0 0 0-7.433-4.996c-2.194-.975-4.753-.731-6.702.73-13.161 9.384-24.616 12.187-32.78 16.208-32.902 16.33-50.937 18.279-89.444 38.02a390 390 0 0 0-23.64 13.039c-1.707 1.096-2.925 2.802-3.291 4.874-.61 3.9.366 6.337.731 7.312 3.047 7.067 13.77 11.089 25.956 8.042.487-.122.853-.365 1.34-.487 30.709-11.211 44.357-19.863 60.32-26.81 17.06-7.554 41.432-19.375 64.829-34.241M281.28 417c8.408-3.657 18.888-7.434 20.96-15.964 1.218-5.24-.366-12.795-5.485-18.157-2.437-2.437-4.996-3.778-6.702-4.63-3.046 1.34-8.042 3.533-14.013 6.336-35.461 16.816-49.353 27.905-79.818 42.894-7.311 3.534-18.278 8.774-32.292 14.38a55.7 55.7 0 0 0-9.992 13.647c-4.022 7.556-5.728 14.502-6.337 19.254a46.3 46.3 0 0 0 13.648 5.484c9.018 1.95 16.573.73 20.716-.244 32.78-19.375 33.024-19.62 33.024-19.62 58.004-34.729 45.209-34.12 66.29-43.38m12.186 44.234c11.211-10.114 20.229-16.451 27.662-21.57 1.462-.974 2.072-2.802 1.462-4.386-1.096-3.29-1.462-8.165-3.533-12.064-2.072-3.778-4.265-7.068-6.337-9.627-1.34-1.706-3.778-1.95-5.362-.61a337 337 0 0 1-17.182 13.283c-28.515 21.082-43.869 27.419-70.434 46.063-7.677 5.362-18.522 13.404-31.318 24.128-1.462 1.218-1.827 3.412-.73 4.996 2.558 3.9 6.945 9.018 13.77 12.673 10.845 5.728 21.69 4.022 25.833 3.412 24.86-4.387 33.511-26.808 66.17-56.298m50.327-4.022c.975-3.533.122-7.19-2.437-9.748-3.534-3.656-8.409-2.803-8.774-2.681-3.9 4.387-10.358 11.21-18.888 18.888-18.523 16.695-29.49 21.69-46.916 36.314-6.458 5.362-16.572 12.551-26.93 23.762-1.585 1.828-1.585 4.509.122 6.337 2.315 2.437 5.727 5.362 9.748 7.068 7.19 3.168 13.77 2.315 16.207 1.827 8.409-5.605 17.426-12.185 26.444-20.106 24.006-21.082 40.457-43.382 51.424-61.66m19.741 36.313c2.803-3.534 5.97-7.311 8.286-9.87 1.097-1.219.731-3.047-.61-3.9-1.827-.975-4.02-1.95-6.458-2.802-5.361-1.828-10.114-2.194-13.404-2.194-12.795 9.749-26.443 21.082-40.213 34.364a510 510 0 0 0-22.91 23.763c2.194 2.802 7.434 8.53 16.086 11.942 6.458 2.437 12.186 2.559 15.598 2.437 7.799-5.484 13.282-10.967 16.572-14.745 11.577-12.551 7.677-14.136 27.053-38.995m35.096-4.143c-6.216-3.412-12.065-3.168-14.746-2.925-7.19 9.262-14.38 19.132-21.69 29.856a597 597 0 0 0-26.566 43.26c3.047 1.096 6.824 2.193 11.333 2.559 9.261.974 16.817-.975 21.325-2.56a291 291 0 0 0 9.14-12.795c12.064-17.913 21.203-35.582 28.027-51.79-1.218-1.584-3.534-3.777-6.824-5.605m11.577 82.986c4.143-6.337 8.286-10.236 12.43-17.67a463 463 0 0 0 20.593-41.188 4.15 4.15 0 0 0-.73-4.387c-2.073-2.437-5.363-5.483-9.871-7.92a39.4 39.4 0 0 0-10.48-3.778c-1.95-.366-4.022.73-4.753 2.68-3.168 8.409-6.215 15.111-8.652 19.62-8.895 17.426-16.085 24.737-24.128 43.26a170 170 0 0 0-4.021 10.357c-.731 2.072.244 4.266 2.193 5.119 9.993 4.386 20.473-2.072 25.59-4.753.854-.244 1.463-.731 1.829-1.34m50.571-61.173c-1.828 2.315-4.509 5.727-7.555 9.992-4.022 5.727-16.086 23.275-30.465 62.148-3.412 9.14-9.87 23.397-13.892 37.654-.731 2.681 1.584 5.24 4.265 4.63 3.169-.73 6.58-.73 8.774-2.68 46.915-43.016 55.324-76.893 57.03-86.763-.122-2.681-.975-9.749-6.337-16.451-4.387-5.118-9.383-7.555-11.82-8.53m704.707-286.367c-110.038 24.371-150.252 29.977-222.148 28.393-71.897-1.585-157.563-14.136-172.673-14.136-14.989 0-96.634 1.097-92.978 28.88 3.655 28.028 24.615 30.709 30.099 53.253 9.992 41.675-5.362 87.981-11.211 104.92-.853 2.437 2.071 4.387 4.021 2.68 8.652-7.92 25.468-28.27 35.217-46.184 8.286-15.354 6.093-17.426 5.24-26.443-.853-8.896-3.412-5.85-5.727-9.383-4.997-7.677-.853-12.917-2.072-24.737-1.34-13.892 5.484-18.767 11.82-30.1 10.115-18.278 60.808-17.181 104.433-11.82 55.202 6.824 103.214 11.577 170.236 1.584 44.235-6.58 83.717-8.164 110.526-12.55 21.812-3.779 51.911-48.013 35.217-44.357"/><path d="M830.617 316.71a1710 1710 0 0 0 42.041 7.311c1.95.244 25.834 3.29 39.97-13.648 5.727-6.946 7.677-14.38 8.408-18.888-28.88.244-59.345-.731-91.394-3.046-14.257-1.097-28.271-2.316-41.797-3.9-9.018-1.95-17.914.366-23.153 6.459a19.6 19.6 0 0 0-3.9 7.311c-.366 1.463.487 3.047 2.072 3.412 21.447 5.484 44.112 10.48 67.753 14.989m-87.982-1.706c-1.828 5.362 0 9.992.366 11.089 24.493 9.627 50.571 19.132 78.11 27.905 14.746 4.753 29.247 9.018 43.383 13.04 14.013-.244 25.833-7.556 29.977-18.401 2.68-7.068 4.63-13.648 3.655-16.939-25.59-1.462-57.151-4.508-87.738-10.114-22.3-4.021-42.894-9.017-61.782-14.257-.975.73-4.265 3.046-5.97 7.677m120.274 80.792c5.727-6.58 4.996-14.501 4.874-15.842-13.04-3.29-26.687-6.946-40.58-11.333-27.783-8.651-52.886-18.4-75.551-28.393-.488 1.34-.975 2.803-1.219 4.387-1.34 6.824 2.437 12.308 3.656 15.964 16.207 12.064 36.07 25.834 64.341 35.095 9.505 3.168 13.892 4.387 22.422 6.093.975.122 15.354 1.828 22.056-5.971m-110.038-21.447c-1.096.487-5.362 2.437-7.677 7.311-2.559 5.362-1.097 10.358-.853 11.333 14.501 11.699 31.074 23.763 49.962 35.34 8.165 4.995 13.77 8.407 21.569 12.55 2.68.366 9.87 1.95 14.745-.487 8.043-3.9 15.354-14.501 14.867-25.103-13.405-4.387-30.465-8.774-45.941-15.841-17.791-8.165-33.267-16.817-46.672-25.103m-18.766 27.54c-7.068 4.63-6.458 12.673-6.946 14.988 6.215 8.287 10.846 17.06 19.132 25.956 11.576 12.673 22.91 22.666 33.511 31.44 3.29.853 8.53 1.828 14.623.365 11.21-2.559 17.913-10.723 20.96-15.72 1.096-1.827.487-4.265-1.463-5.24a285 285 0 0 1-44.112-27.54c-11.943-9.139-22.057-18.278-30.465-26.808-1.462.61-3.29 1.34-5.24 2.559m-22.665 29.733a19 19 0 0 0-4.022 5.971c4.753 12.795 11.699 28.637 28.88 42.773 3.047 2.437 6.337 9.748 9.384 11.576 1.462.61 7.311-1.097 12.551-2.193 3.9-.853 9.505-2.925 13.039-4.63a2.592 2.592 0 0 0 .61-4.266c-6.337-5.484-16.817-13.648-21.692-19.132-12.307-14.013-20.594-23.397-28.514-36.07-2.316.488-6.58 2.072-10.237 5.971M700.35 447.83c-.73.121-2.437.365-3.9 1.584-2.924 2.559-2.436 6.58-2.436 6.945 2.68 4.022 5.605 8.896 8.164 14.623a99.3 99.3 0 0 1 8.165 28.88c.73.61 4.874 4.51 10.967 4.022 5.24-.365 9.87-3.656 12.186-8.53-8.408-10.967-18.035-21.569-26.443-34.12-2.803-4.143-4.266-9.383-6.703-13.405m438.812-160.853c-10.114-6.336-20.472-6.946-25.712-6.946-57.76 4.753-115.643 9.505-173.404 14.258-.731 0-4.63.365-7.556 3.656-1.827 1.95-2.437 4.265-2.68 5.97-.244 1.829 1.218 3.29 3.046 3.413 16.695.609 30.22.975 39.238 2.437 51.79 8.53 69.947 11.21 112.354 12.43 15.232.487 27.662 0 35.095-.366 4.752-2.437 11.455-6.58 17.913-13.283 4.143-4.265 7.068-8.53 9.261-12.186.732-1.218.61-2.924-.487-3.899-1.828-1.706-4.143-3.656-7.068-5.484m-28.149 43.016c-10.236.244-20.716.366-31.44.244-56.664-.487-108.819-6.824-155.613-16.085-.609.122-3.412.853-5.24 3.656-1.096 1.706-1.218 3.412-1.218 4.265a1069 1069 0 0 0 46.062 15.597c45.82 14.258 89.2 24.128 129.414 31.074 18.644-2.437 29.733-14.988 28.637-24.98-.732-7.556-8.165-12.308-10.602-13.77m-26.565 46.306c-28.88-3.9-60.808-10.358-95.293-18.523-35.583-8.53-51.425-16.329-77.868-24.25-2.437-.73-4.874.244-5.85 2.56-.487 1.096-.852 2.558-.974 4.02-.487 5.728 2.68 9.871 3.412 10.724 8.896 4.021 17.913 7.921 26.809 11.942 42.163 18.645 84.082 36.801 125.758 54.593 19.497 2.924 37.045-10.48 38.02-22.178 1.096-11.455-13.04-18.28-14.014-18.888m-29.734 51.546c-5.605-3.412-13.77-7.921-23.64-13.04-38.63-19.74-56.542-21.69-89.444-38.019-8.165-4.021-19.62-6.824-32.78-16.207-1.95-1.34-4.509-1.706-6.702-.731a26.4 26.4 0 0 0-7.434 4.996q-2.193 2.193-3.655 4.387c-2.072 3.046-1.219 7.311 1.827 9.383 3.29 2.315 7.312 4.996 11.943 7.92 23.518 14.867 47.89 26.688 64.828 34.121 15.842 6.946 29.49 15.598 60.32 26.809.488.122.853.365 1.34.487 12.186 3.169 22.788-.975 25.956-8.042.366-.975 1.34-3.534.732-7.312-.366-1.95-1.585-3.656-3.29-4.752m-48.5 21.203c-14.014-5.606-24.981-10.724-32.293-14.38-30.464-14.988-44.356-26.199-79.817-42.893-5.971-2.803-10.967-4.997-14.014-6.337a20.1 20.1 0 0 0-6.702 4.63c-5.118 5.24-6.702 12.918-5.483 18.157 2.071 8.53 12.673 12.43 20.96 15.964 21.203 9.14 8.407 8.53 66.29 43.503 0 0 .366.244 33.024 19.62 4.143.974 11.698 2.315 20.716.243a46.3 46.3 0 0 0 13.648-5.483c-.731-4.753-2.316-11.699-6.337-19.254a54.4 54.4 0 0 0-9.992-13.77m-55.811 30.221c-26.444-18.523-41.92-24.981-70.434-46.063-7.068-5.24-12.917-9.87-17.183-13.282-1.706-1.34-4.143-1.097-5.361.61-2.072 2.68-4.265 5.848-6.337 9.626-2.193 3.9-2.437 8.896-3.534 12.064-.61 1.584 0 3.412 1.462 4.387 7.434 5.118 16.451 11.455 27.662 21.569 32.658 29.611 41.31 51.911 66.048 56.055 4.265.73 14.988 2.315 25.834-3.412 6.824-3.534 11.21-8.774 13.77-12.674 1.096-1.584.73-3.777-.732-4.996-12.551-10.602-23.518-18.644-31.195-23.884m-46.916 27.661c-17.426-14.622-28.393-19.618-46.915-36.313-8.53-7.677-14.989-14.501-18.888-18.888-.366-.122-5.24-.853-8.774 2.68-2.56 2.56-3.412 6.216-2.437 9.75 10.967 18.278 27.418 40.578 51.424 61.538 9.017 7.92 18.035 14.501 26.443 20.107 2.437.487 9.018 1.34 16.207-1.828 4.022-1.706 7.434-4.631 9.749-7.068 1.706-1.706 1.706-4.509.122-6.337-10.358-11.089-20.472-18.279-26.93-23.64m-44.479 9.505c-13.77-13.283-27.418-24.738-40.213-34.364-3.29 0-8.043.365-13.405 2.193-2.437.853-4.63 1.828-6.458 2.803-1.463.73-1.706 2.68-.61 3.9 2.316 2.436 5.484 6.214 8.287 9.87 19.375 24.859 15.598 26.443 26.93 39.116 3.413 3.778 8.774 9.262 16.573 14.745 3.412.122 9.14 0 15.598-2.437 8.652-3.29 13.892-9.018 16.085-11.942-6.824-7.92-14.379-15.842-22.787-23.884m-72.75-22.91c-2.559-.243-8.53-.365-14.744 2.925-3.29 1.828-5.484 3.9-6.946 5.605 6.824 16.208 15.963 33.877 28.027 51.79a291 291 0 0 0 9.14 12.795c4.508 1.584 12.063 3.534 21.325 2.56 4.508-.488 8.286-1.463 11.332-2.56a521 521 0 0 0-26.565-43.26 528 528 0 0 0-21.569-29.855m-.974 76.527c-7.921-18.522-15.233-25.834-24.128-43.26-2.316-4.63-5.484-11.21-8.652-19.619-.731-1.95-2.681-3.046-4.753-2.68-2.924.609-6.58 1.584-10.48 3.777-4.508 2.437-7.799 5.606-9.87 7.92-1.097 1.22-1.34 2.926-.731 4.388 5.849 13.16 12.551 26.93 20.594 41.188 4.143 7.311 8.286 11.333 12.43 17.67.365.609.974 1.096 1.583 1.462 4.997 2.559 15.598 9.14 25.59 4.752 1.95-.853 2.925-3.168 2.194-5.118-.731-3.046-2.071-6.58-3.777-10.48m-37.776 20.351c-14.38-38.873-26.444-56.42-30.465-62.148-3.047-4.265-5.727-7.799-7.555-9.992-2.56.974-7.434 3.412-11.577 8.53-5.362 6.702-6.215 13.77-6.336 16.45 1.706 9.871 9.992 43.87 57.03 86.764 2.07 1.95 5.605 1.95 8.773 2.68 2.68.61 4.996-1.95 4.265-4.63-4.143-14.258-10.723-28.515-14.136-37.654M506.596 180.96c0 1.828 1.462 3.29 3.29 3.412l32.048 3.412 2.072 19.619c.366 3.778 1.828 9.261 4.265 14.988 1.828 4.266 6.459 12.796 6.459 12.796l-.122 10.845c9.383-2.072 17.791-2.925 24.128-3.29 0 0 2.071-.122 5.849-.122h.244c3.655 0 5.849.122 5.849.122 6.093.365 14.257 1.097 23.275 3.046l-.122-10.358s4.63-8.53 6.458-12.795c2.438-5.849 3.9-11.21 4.265-14.988l2.072-19.62 32.049-3.412c1.828-.121 3.29-1.584 3.29-3.412v-13.038a2.184 2.184 0 0 0-2.194-2.194c-17.79-.487-37.532-2.437-55.689-3.046-5.849-12.796-5.727-41.067-5.362-29.368-1.218-34.974.122-54.105 4.022-82.62l7.311.122c1.463 0 2.803-1.219 2.803-2.681v-28.15a2.665 2.665 0 0 0-2.437-2.68l-9.14-.732c-.121-1.462-1.096-7.677-6.702-12.307-3.655-3.047-7.555-3.778-9.748-4.022V0c-1.706.122-6.337.61-10.602 4.143-5.606 4.509-6.58 10.846-6.702 12.308l-9.14.731c-1.34.122-2.437 1.34-2.437 2.68v28.15c0 1.462 1.219 2.681 2.803 2.681l7.311-.122c3.9 28.637 5.24 47.769 4.022 82.62.365-11.698.487 16.695-5.362 29.368-18.157.61-37.776 2.437-55.69 3.046a2.184 2.184 0 0 0-2.193 2.194v13.16zm108.819 414.562h-62.513l-.488 93.587c-.365 14.745 5.24 49.474 11.942 73.359 5.971 20.96 12.308 25.102 19.254 35.826V800c.244-.244.366-.61.61-.853.121.244.243.366.365.61v-1.097c7.068-10.846 13.404-14.867 19.254-35.827 6.702-23.884 12.307-58.614 11.942-73.359z"/><path d="M684.996 446.002c-6.458-8.165 25.469-69.094 8.652-122.834-19.74-63.122-78.111-72.993-103.458-74.211 0 0-2.193-.122-5.849-.122h-.244c-3.655 0-5.849.122-5.849.122-25.224 1.34-83.716 11.089-103.336 74.211-16.816 53.862 15.11 114.669 8.652 122.834-25.955 32.901 9.383 85.057 14.136 89.322 8.652 7.799 36.314-7.921 31.927.122-3.29 6.214-6.337 52.764-6.337 52.764h8.53l4.143-16.207 7.312-.122 1.462 16.33h14.989l1.462-15.599 4.996-.73.731 16.328h12.064l.61-16.694h9.87l.61 16.694h12.063l.732-16.329 4.996.731 1.462 15.598h14.501l1.463-16.329 7.311.122 4.143 16.207h8.53s-3.046-46.55-6.336-52.764c-4.387-8.165 23.275 7.555 31.927-.122 4.752-4.265 40.091-56.42 14.135-89.322m-116.862 34.12c-3.412 4.143-8.286 9.14-14.867 13.16-15.963 9.871-31.683 8.409-38.141 7.434-.366 0-.853-.244-1.219-.488-13.892-9.626-19.254-24.737-15.11-34.12.609-1.462 2.924-6.215 10.236-9.14.365-.121.853-.243 1.218-.243 8.774.853 19.741 2.803 31.927 6.946 9.87 3.29 18.157 7.433 24.981 11.333 1.828.975 2.315 3.412.975 5.118m33.39 56.908c0 1.096-1.22 1.462-1.829.609-1.462-2.072-3.534-4.509-6.336-6.702-2.925-2.316-5.728-3.9-8.043-4.753-2.193.853-4.996 2.316-8.043 4.753-2.802 2.193-4.874 4.63-6.336 6.702-.61.853-1.828.366-1.828-.61-.488-7.92-.122-24.25 10.845-36.07 1.463-1.584 3.29-2.924 5.362-4.143 2.072 1.34 4.021 2.681 5.362 4.144 10.967 11.82 11.333 28.149 10.845 36.07m53.373-36.802c-.365.244-.731.366-1.218.488-6.337.975-22.179 2.315-38.142-7.433-6.58-4.022-11.455-9.018-14.867-13.161-1.218-1.584-.853-4.021.853-4.996 6.824-3.9 15.233-7.921 24.981-11.333 12.186-4.143 23.153-6.093 31.927-6.946.366 0 .853 0 1.219.244 7.311 2.924 9.626 7.677 10.236 9.139 4.265 9.261-1.097 24.372-14.989 33.998"/></svg>