<svg xmlns="http://www.w3.org/2000/svg" xml:space="preserve" viewBox="0 0 683.442 800"><path d="M481.896 301.396c-31.81-27.714-57.516-55.508-89.407-83.221l-135.837 15.744-4.418 22.814c-1.847.401-26.027 7.55-42.896 28.918-16.628 21.046 12.933 61.854 47.314 74.465-5.221-14.62-2.57-30.203 6.989-40.325 7.631-7.952 17.11-9.96 21.046-10.523 27.955-1.848 48.76-1.285 58.721 16.628 14.299 25.866 1.848 84.266-52.535 107.802 51.892 18.797 108.846 8.435 147.163-27.151 43.619-40.406 43.94-95.672 43.86-105.151m-194.558-33.257-16.628-13.174 34.14-6.988z"/><path d="M451.692 742.083c-20.243-20.243-19.038-44.182-18.636-49.965v-209.74c26.75-14.058 49.884-34.14 67.476-58.4l27.794 29.883h-46.43L683.442 590.5l-91.174-110.37h41.21L530.735 361.08c4.498-16.547 6.989-33.899 6.989-51.812 0-25.946-5.061-50.768-14.299-73.421L631.63 110.373h-41.21L681.676 0 480.129 136.64h46.43l-38.96 41.932c-15.423-17.19-33.899-31.57-54.543-42.414v-28.436c-.402-5.784-1.527-29.722 18.636-49.965 19.52-19.52 51.41-28.196 82.9-22.814V0H150.055v35.024c31.49-5.463 63.46 3.213 82.9 22.813 20.243 20.243 19.038 44.181 18.637 49.965v28.437a195.9 195.9 0 0 0-56.07 44.1l-40.567-43.618h46.43L0 0l91.093 110.373H49.965l110.372 127.884c-8.675 22.01-13.334 45.948-13.334 71.011 0 18.074 2.49 35.586 7.069 52.214L51.732 480.13h41.21L1.766 590.5l201.466-136.64h-46.43l27.553-29.642c17.592 24.18 40.647 44.181 67.316 58.159v209.82c.402 5.784 1.526 29.722-18.637 49.965-19.52 19.52-51.41 28.195-82.9 22.813V800h384.537v-35.024c-31.489 5.302-63.46-3.373-82.98-22.893M342.364 463.5c-85.15 0-154.233-69.003-154.233-154.232 0-85.23 69.003-154.232 154.233-154.232s154.232 69.003 154.232 154.232c0 85.23-69.083 154.232-154.232 154.232"/></svg>