<svg xmlns="http://www.w3.org/2000/svg" xml:space="preserve" viewBox="0 0 736.58 800"><path d="M336.802 0c-2.392 0-4.873 0-7.264.089v68.298l-39.863 3.986v57.757a264.8 264.8 0 0 0-56.782 15.502L202.42 96.733a150.7 150.7 0 0 0-36.762 15.503 150.6 150.6 0 0 0-32.333 25.689s20.02 31.801 30.207 47.57c-15.857 12.578-30.385 26.84-43.14 42.52L68.215 200.73c-7.176 7.707-15.68 18.425-23.475 32.333a165 165 0 0 0-15.502 38.534c16.21 9.744 32.421 19.577 48.72 29.321C71.049 318.635 66 337.148 62.9 356.46l-60.68 5.05C.98 372.228.095 384.098.006 396.943c-.089 15.148.797 28.967 2.215 41.191 20.02.975 40.128 1.95 60.148 2.924 3.1 20.817 8.593 40.837 16.122 59.882L29.24 526.808c2.214 9.212 5.935 20.817 12.401 33.219 9.036 17.45 20.02 29.94 28.347 38.09l48.367-28.08c12.667 15.945 27.018 30.472 42.786 43.228l-29.233 49.076c8.504 6.644 18.249 13.553 29.233 20.374a326 326 0 0 0 40.748 21.26c9.745-16.565 19.577-33.13 29.322-49.607a277.5 277.5 0 0 0 58.82 16.211v53.859c8.592 3.632 21.437 7.441 36.319 5.315 1.063-.177 2.126-.354 3.1-.531v70.69c2.392 0 4.784.088 7.264.088 220.84 0 399.867-179.028 399.867-399.867S557.64 0 336.802 0m293.655 536.729c-9.302 20.02-20.64 38.977-33.662 56.516l-51.999-26.663c-7.618 4.34-15.856 13.022-25.246 21.26-10.276 9.035-18.868 15.413-24.36 23.032 3.631 6.643 7.263 13.376 10.895 20.108 6.024 11.162 13.2 24.626 17.894 33.662-18.691 13.288-38.8 24.626-60.148 33.75l-29.764-47.658c-10.985 2.215-22.59 5.758-34.548 8.859-11.25 2.923-21.88 5.226-31.89 8.415v54.745c-10.276.974-20.64 1.506-31.182 1.506h-3.366V613.53l-7.087 1.86v-20.02h-6.732l-.797 21.438h-16.92l-.974-20.906-6.998.974-1.95 19.932h-20.905l-1.949-20.906-10.275.089-5.758 20.728h-11.96s4.253-59.617 8.86-67.5c6.111-10.365-32.511 9.744-44.647-.178-6.732-5.492-56.162-72.196-19.754-114.184 9.035-10.453-35.61-88.23-12.048-157.148 27.638-80.7 109.313-93.279 144.658-94.962 0 0 2.923-.177 8.15-.177h.088v318.104c.531-.265 1.063-.62 1.594-.885 2.924 1.683 5.581 3.366 7.53 5.315 15.325 15.147 15.768 36.053 15.148 46.152a1.492 1.492 0 0 1-2.658.886c-2.126-2.658-4.96-5.758-8.858-8.593-4.163-3.012-8.061-4.96-11.162-6.024-.531.177-1.063.443-1.594.62v57.225h6.998l.797 21.438h16.92l.974-20.906 6.998.974 1.95 19.932h20.905l1.949-20.906 10.276.089 5.757 20.728h11.96s-4.253-59.617-8.86-67.5c-6.111-10.365 32.511 9.655 44.647-.178 6.732-5.492 56.162-72.196 19.754-114.184-9.035-10.542 35.522-88.318 12.048-157.148-27.638-80.7-109.313-93.279-144.658-94.962V76.182h2.126q13.554 0 26.841 1.063l4.34 52.619c8.15 3.455 18.16 5.05 28.348 7.972 14.35 4.164 26.663 8.327 38.09 9.745 10.63-14.794 21.26-29.676 31.98-44.47a322 322 0 0 1 53.593 29.765l-24.627 51.91c6.29 8.327 15.06 16.742 24.804 26.132 8.681 8.327 16.21 16.122 23.917 21.703 18.337-7.441 36.674-14.97 55.1-22.412 12.578 17.363 23.474 35.965 32.421 55.63l-51.201 30.562c1.86 10.276 5.315 21.615 8.858 33.662 4.075 13.642 7.796 25.778 12.402 36.32h57.314c1.151 11.161 1.771 22.411 1.771 33.838 0 11.605-.62 23.12-1.771 34.371h-56.428c-4.784 8.061-8.15 19.311-12.402 31.89-5.05 15.06-8.947 27.638-9.744 38.091zm-280.102-64.666c9.567-4.96 21.26-10.187 34.99-14.44 17.009-5.314 32.334-7.795 44.647-8.858.62-.088 1.151 0 1.771.266 10.187 3.72 13.465 9.833 14.35 11.605 5.759 12.047-1.682 31.358-21.26 43.671-.53.355-1.062.532-1.682.62-8.947 1.24-30.916 3.012-53.328-9.567a80.4 80.4 0 0 1-20.817-16.83c-1.683-2.127-1.151-5.227 1.329-6.467"/><path d="M304.911 551.345a1.492 1.492 0 0 0 2.658.886c2.126-2.657 4.96-5.758 8.858-8.592 3.455-2.48 6.821-4.252 9.567-5.404v-37.382c-2.303 1.328-4.34 2.834-5.935 4.429-15.325 15.059-15.768 35.876-15.148 46.063m-2.391-79.282c-9.567-4.96-21.26-10.187-34.99-14.44-16.92-5.314-32.245-7.795-44.647-8.858-.62 0-1.152.089-1.772.266-10.276 3.72-13.553 9.833-14.35 11.605-5.758 12.047 1.683 31.27 21.171 43.671.443.355 1.063.532 1.683.62 8.947 1.24 31.005 3.012 53.328-9.567a80.4 80.4 0 0 0 20.817-16.83c1.594-2.127 1.151-5.227-1.24-6.467"/></svg>