<svg xmlns="http://www.w3.org/2000/svg" viewBox="0 0 68.015 211.667"><path d="M33.904 0 16.946 29.477 0 58.962l29.62-.046v12.626H0v7.18h29.62v7.819H0v7.18h29.62l-19.474 19.538 19.473 19.473H0v7.18h29.62v7.82H0v7.179h29.62v16.329c-15.706 1.822-27.12 13.044-26 25.816.489 5.417 3.224 10.548 7.773 14.578l7.918-5.023c-3.256-2.75-5.222-6.326-5.562-10.116-.765-8.79 7.25-16.489 18.128-17.413q1.01-.087 2.027-.091c10.159-.042 18.793 5.97 20.213 14.073l.199 2.286c-.01 4.189-2.013 8.215-5.599 11.25l7.913 5.067c5.045-4.477 7.839-10.29 7.84-16.317l-.3-3.404c-1.913-10.85-12.572-19.18-25.775-20.709v-16.326h29.62v-7.18h-29.62v-7.819h29.62v-7.18h-29.62l19.474-19.473L38.396 93.72h29.619v-7.18h-29.62v-7.817h29.62v-7.18h-29.62V58.9l29.62-.059-17.05-29.424zm.043 16.718 9.986 17.218 9.98 17.222-19.905.04-19.904.03 9.917-17.256zm.06 83.311 13.168 13.212-13.167 13.167-13.168-13.167zm.057 81.752-5.94 10.225-5.943 10.226 11.827.033 11.826.033-5.885-10.259z"/></svg>