<svg xmlns="http://www.w3.org/2000/svg" xml:space="preserve" viewBox="0 0 2357.124 800"><path d="M1385.141 232.685c-37.668-109.667-148.527-126.594-196.447-128.978 0 0-4.053-.239-10.966-.239h-.477c-7.152 0-10.967.239-10.967.239-47.92 2.145-158.779 19.31-196.447 128.978-31.946 93.455 28.609 199.069 16.212 213.373-49.35 56.98 17.642 147.574 26.94 154.965 16.45 13.589 68.9-13.828 60.555.238-6.199 10.728-12.159 91.548-12.159 91.548h16.212l7.867-28.132 13.828-.238 2.622 28.37h28.37l2.623-26.94 9.536-1.43 1.43 28.37H1167l.954-29.086h18.596l.953 29.086h23.126l1.43-28.37 9.536 1.43 2.623 26.94h28.37l2.623-28.37 13.827.238 7.868 28.132h16.211s-5.721-80.82-12.158-91.548c-8.345-14.066 44.105 13.112 60.555-.238 9.298-7.391 76.29-97.986 26.94-154.965-11.92-14.304 48.635-119.918 16.688-213.373m-238.168 272.26c-6.437 7.152-15.735 15.735-28.37 22.887-30.278 16.927-60.317 14.543-72.237 12.874-.716 0-1.67-.239-2.146-.716-26.463-16.688-36.476-42.913-28.609-59.124 1.192-2.384 5.722-10.729 19.55-15.735.715-.239 1.668-.239 2.384-.239 16.688 1.43 37.668 4.769 60.555 12.16 18.596 5.72 34.569 12.873 47.443 19.549 3.099 1.43 3.814 5.721 1.43 8.344m63.178 98.938c0 1.908-2.384 2.623-3.576 1.192-2.861-3.576-6.676-7.867-12.159-11.681-5.722-4.053-10.967-6.676-15.258-8.106-4.053 1.43-9.536 4.053-15.258 8.106-5.245 3.814-9.298 8.105-12.159 11.681-1.192 1.43-3.576.716-3.576-1.192-.953-13.827-.238-42.198 20.503-62.7 2.623-2.623 6.199-5.007 10.252-7.153 4.053 2.146 7.629 4.53 10.251 7.153 21.457 20.74 21.933 49.111 20.98 62.7m101.561-63.893q-1.072.716-2.146.716c-12.158 1.669-41.96 4.053-72.237-12.874-12.635-7.152-21.933-15.497-28.37-22.887-2.384-2.861-1.669-7.152 1.669-8.821 13.112-6.676 28.847-13.828 47.443-19.55 23.125-7.152 43.866-10.49 60.555-12.158.715 0 1.669 0 2.384.238 13.827 5.007 18.357 13.35 19.55 15.735 7.628 16.688-2.385 42.913-28.848 59.601"/><path d="M945.281 302.06c-19.549-4.767-38.145-18.356-59.84-27.416-10.013-7.867-36.714-28.609-50.542-75.813-14.304-48.873 29.324-102.515 34.33-112.051 21.219-5.722 27.417-4.53 48.636-10.49V0H0c18.596 38.383 37.668 74.86 56.98 109.905l565.5-2.384c.953 5.245 2.145 10.729 3.337 16.45l-537.13 41.483c36.476 61.747 73.43 117.534 110.144 168.315l433.9-134.7c2.384 8.345 4.768 16.689 7.629 25.271L253.903 406.483c35.046 44.105 69.138 83.442 101.8 118.726L656.81 306.591c2.622 6.198 5.245 12.158 7.867 18.357L393.609 565.262c34.807 35.522 66.992 65.8 97.031 91.548l208.606-262.724a453 453 0 0 0 16.45 25.032l-186.91 268.923c50.542 39.575 93.455 65.085 129.216 81.535 31.708-94.41 67.707-207.175 99.177-299.439 7.39 6.914 9.536 10.49 16.688 15.735L681.842 779.59c61.032 23.364 97.747 18.357 113.72 15.258 5.007-.954 10.013-2.146 14.781-3.338 13.113-88.687 22.887-187.149 36.238-275.36 6.437.716 12.397.954 17.88.954L855.403 766c19.311-7.868 42.198-20.265 64.37-40.53q7.868-7.151 14.304-14.304V465.37c.477-3.576 6.676 2.623 18.834-7.39 7.153-5.96 15.02-32.424 15.02-47.443-10.252-29.801-17.88-35.523-21.218-77.005-.239.238-1.43-20.98-1.43-31.47M2300.145 112.29c19.31-34.808 38.383-71.523 56.979-109.906h-917.865v76.29c21.219 5.722 27.417 4.53 48.635 10.49 5.245 9.536 48.635 63.178 34.33 112.051-13.827 47.204-40.528 68.184-50.541 75.813-21.695 9.298-40.291 22.649-59.84 27.417 0 10.49-1.192 31.708-1.192 31.708-3.338 41.483-10.967 46.966-21.219 77.005 0 15.02 7.868 41.483 15.02 47.443 12.159 10.013 18.119 3.815 18.834 7.39V713.79q6.437 7.152 14.305 14.304c21.933 20.265 45.058 32.662 64.37 40.53l-9.537-248.897c5.483 0 11.444-.238 17.88-.954 13.351 87.972 23.126 186.673 36.238 275.36 4.768 1.192 9.775 2.384 14.781 3.337 15.974 2.861 52.688 7.868 113.72-15.258l-91.786-293.716c6.914-5.245 9.298-8.821 16.688-15.735 31.47 92.502 67.23 205.03 99.177 299.438 35.761-16.45 78.913-42.198 129.217-81.535l-186.911-268.922a453 453 0 0 0 16.45-25.033l208.606 262.724c30.039-25.748 62.224-56.025 97.031-91.548l-271.306-240.552c2.622-5.96 5.244-12.159 7.867-18.357l301.107 218.618c32.662-35.284 66.754-74.86 101.8-118.726l-386.457-182.143c2.622-8.582 5.245-16.926 7.629-25.27l433.9 134.699c36.714-50.78 73.906-106.568 110.143-168.315l-536.89-41.483c1.191-5.721 2.383-11.205 3.337-16.45z"/></svg>