<svg xmlns="http://www.w3.org/2000/svg" xml:space="preserve" viewBox="0 0 800 800"><path d="m690.41 398.786 109.237-179.634c1.133-1.862-.648-4.046-2.67-3.399l-314.2 104.382c-1.78.567-3.56-1.132-2.912-2.913L584.247 3.024C584.894 1 582.71-.78 580.848.354L401.214 109.59c-.728.485-1.7.485-2.428 0L219.152.353c-1.862-1.133-4.046.648-3.399 2.67l104.382 314.2c.567 1.78-1.132 3.56-2.913 2.912L3.024 215.753C1 215.106-.78 217.29.354 219.152L109.59 398.786c.485.728.485 1.7 0 2.428L.353 580.848c-1.133 1.862.648 4.046 2.67 3.399l314.2-104.382c1.78-.567 3.56 1.132 2.912 2.913L215.753 796.976c-.647 2.023 1.537 3.804 3.399 2.67L398.786 690.41a2.2 2.2 0 0 1 2.428 0l179.634 109.238c1.862 1.133 4.046-.648 3.399-2.67l-104.382-314.2c-.567-1.78 1.132-3.56 2.913-2.912l314.198 104.382c2.023.647 3.804-1.537 2.67-3.399L690.41 401.214a2.58 2.58 0 0 1 0-2.428"/></svg>