<svg xmlns="http://www.w3.org/2000/svg" xml:space="preserve" viewBox="0 0 955.787 800"><path d="M464.796 800c-5.24-.962-10.479-1.71-15.718-2.78-39.776-8.02-62.23-31.97-67.79-72.173-4.063-29.511-.534-58.701 4.812-87.677 8.768-47.26 23.737-92.703 37.744-138.573 20.743-67.79 39.668-136.006 54.317-205.4.32-1.283.641-2.566 2.031-3.849 1.818 8.02 3.529 16.146 5.347 24.165 17.214 76.878 39.454 152.366 62.977 227.426 11.869 37.957 22.24 76.236 27.907 115.69 3.529 24.38 5.24 48.865.642 73.35-7.27 38.6-30.9 61.481-69.928 67.576-4.17.641-8.34 1.39-12.51 2.138-9.837.107-19.888.107-29.831.107M25.555 454.53c1.71 0 3.421-.107 5.132 0 35.712 2.031 71.21 1.817 106.602-4.17 7.27-1.283 14.435-3.743 21.599-5.881 1.817-.535 3.849-1.604 4.918-2.994 1.283-1.604 2.352-4.063 2.138-5.88-.106-1.07-3.314-2.14-5.132-2.246-12.403-.748-25.02.107-37.209-1.925-26.41-4.383-48.33-18.497-68.11-36.033-21.812-19.353-39.24-42.234-54.851-66.613-.214-.427-.321-.962-.642-2.031 2.46.962 4.384 1.604 6.202 2.352 29.831 12.082 60.304 22.026 92.381 25.448 11.227 1.176 22.668.107 34.002 0 .534 0 1.176-.107 1.603-.321 3.636-2.245 7.271-4.598 10.907-6.843-2.674-2.78-4.919-6.309-8.127-8.34-18.07-11.655-36.995-22.133-54.53-34.643-26.945-19.246-47.795-43.732-58.701-75.595-5.667-16.466-7.912-33.467-6.843-52.071 2.031 1.71 3.528 2.78 4.918 3.956 25.876 22.454 52.927 43.41 82.545 60.625 9.837 5.667 20.315 10.158 30.794 14.649 3.742 1.604 8.767 3.528 11.761-.963 2.78-4.17-1.069-7.805-3.635-10.799-41.38-49.398-57.952-108.099-64.368-170.435-2.352-22.454-2.78-45.122-3.956-67.682-.107-1.925 0-3.85 1.176-6.095l2.246 4.812c20.956 47.046 45.656 91.846 76.77 132.905 45.122 59.342 102.54 101.79 172.467 127.666 10.8 4.063 21.385 8.875 31.97 13.472 3.208 1.39 6.309 3.208 9.41 5.026 23.843 14.648 29.51 43.731 12.082 65.757-5.56 7.057-12.938 12.617-19.995 18.391-7.164 5.88-15.076 10.8-22.24 16.573-22.988 18.284-28.87 42.555-22.24 70.035 6.415 26.623 25.555 39.989 51.002 45.87 5.56 1.283 11.227 1.817 17.429 2.78-8.875 23.523-17.643 47.046-26.624 71.103-1.818-1.71-3.208-2.993-4.598-4.276-19.46-18.391-44.694-21.171-67.147-6.844-7.164 4.598-13.687 10.265-20.102 15.825-7.698 6.63-14.97 13.793-22.454 20.53-22.347 20.1-48.222 30.045-78.695 28.44-27.159-1.39-53.569-5.132-77.412-19.46-4.491-2.672-8.661-5.88-14.007-9.515 8.66-2.353 16.145-3.957 23.202-6.523 18.498-6.736 36.995-13.686 55.28-21.277 6.95-2.887 13.365-7.485 19.566-11.869 3.85-2.78 7.699-6.094 10.265-10.05 2.138-3.315 3.635-8.02 2.994-11.655-.321-1.71-6.202-3.315-9.624-3.636-16.145-1.39-32.397-1.496-48.436-3.742-45.228-6.308-79.336-28.976-99.759-70.569-.641-1.283-1.176-2.566-1.71-3.85-.428-.32-.321-.748-.214-1.39m904.675 0c-1.71 0-3.421-.106-5.132 0-35.712 2.032-71.21 1.818-106.602-4.17-7.271-1.282-14.435-3.742-21.599-5.88-1.818-.535-3.85-1.604-4.918-2.994-1.283-1.604-2.353-4.063-2.139-5.88.107-1.07 3.315-2.14 5.133-2.246 12.403-.748 25.02.107 37.209-1.925 26.41-4.383 48.329-18.497 68.11-36.033 21.812-19.353 39.24-42.234 54.851-66.613.214-.427.32-.962.642-2.031-2.46.962-4.384 1.604-6.202 2.352-29.831 12.082-60.304 22.026-92.381 25.448-11.227 1.176-22.668.107-34.002 0-.534 0-1.176-.107-1.604-.321-3.635-2.245-7.27-4.598-10.906-6.843 2.673-2.78 4.919-6.309 8.126-8.34 18.07-11.655 36.996-22.133 54.531-34.643 26.945-19.246 47.795-43.732 58.7-75.595 5.668-16.466 7.913-33.467 6.844-52.071-2.032 1.71-3.529 2.78-4.919 3.956-25.875 22.454-52.926 43.41-82.544 60.625-9.837 5.667-20.316 10.158-30.794 14.649-3.742 1.604-8.768 3.528-11.762-.963-2.78-4.17 1.07-7.805 3.636-10.799 41.486-49.184 57.952-107.885 64.474-170.221 2.353-22.454 2.78-45.122 3.957-67.682.107-1.925 0-3.85-1.177-6.095l-2.245 4.811c-20.957 47.047-45.656 91.847-76.77 132.906C755.624 197.059 698.1 239.508 628.28 265.383c-10.8 4.063-21.385 8.875-31.97 13.472-3.208 1.39-6.309 3.208-9.41 5.026-23.843 14.648-29.51 43.731-12.082 65.757 5.56 7.057 12.938 12.617 19.995 18.391 7.163 5.88 15.076 10.8 22.24 16.573 22.988 18.284 28.869 42.555 22.24 70.035-6.416 26.623-25.555 39.989-51.003 45.87-5.56 1.283-11.227 1.817-17.428 2.78 8.875 23.523 17.642 47.046 26.624 71.103 1.817-1.71 3.207-2.993 4.597-4.276 19.46-18.391 44.694-21.171 67.148-6.844 7.164 4.598 13.686 10.265 20.102 15.825 7.698 6.63 14.969 13.793 22.453 20.53 22.347 20.1 48.223 30.045 78.696 28.44 27.158-1.39 53.568-5.132 77.412-19.46 4.49-2.672 8.66-5.88 14.007-9.515-8.66-2.353-16.145-3.957-23.202-6.523-18.498-6.736-36.996-13.686-55.28-21.277-6.95-2.887-13.365-7.485-19.566-11.869-3.85-2.78-7.699-6.094-10.265-10.05-2.139-3.315-3.635-8.02-2.994-11.655.32-1.71 6.202-3.315 9.623-3.636 16.146-1.39 32.398-1.496 48.436-3.742 45.229-6.308 79.337-28.976 99.76-70.569.64-1.283 1.176-2.566 1.71-3.85.214-.32.107-.748.107-1.39"/></svg>