<svg xmlns="http://www.w3.org/2000/svg" viewBox="0 0 211.667 211.667"><path d="M105.847 0 84.378 21.223h11.93v61.579L74.555 61.049l8.438-8.438-30.192.19-.163 30.165 8.41-8.412 21.735 21.727h-61.56V84.379L0 105.819l21.224 21.469v-11.903h61.578l-21.74 21.74-8.424-8.424.163 30.164 30.192.19-8.438-8.437 21.753-21.754v61.578h-11.93l21.469 21.225 21.468-21.225h-11.93v-61.57l21.753 21.746-8.437 8.438 30.192-.191.162-30.164-8.424 8.424-21.739-21.74h61.55v11.903l21.225-21.468-21.224-21.441v11.902h-61.552l21.727-21.727 8.437 8.438-.19-30.191-30.164-.163 8.424 8.424-21.74 21.74V21.223h11.93z"/></svg>