<svg xmlns="http://www.w3.org/2000/svg" viewBox="0 0 211.667 211.667"><path d="M164.798 94.67h-4.429v-3.874c.277-4.983-6.09-7.752-6.09-7.752s2.022-16.61-2.492-28.79c-2.074-5.598-6.592-10.942-8.533-12.85l-13.66 9.02 2.755-12.437c-7.286-1.25-20.358-2.319-26.517-2.004a110 110 0 0 0-22.147 1.107c-6.308.962-13.011 2.492-15.78 4.706-2.77 2.213-5.955 6.861-8.029 12.457-4.513 12.18-2.492 28.791-2.492 28.791s-6.367 2.769-6.09 7.752v3.874h-4.425v14.95h4.705l-.277 11.072c4.483 16.229 10.444 28.457 18.548 34.881l5.01 9.762 14.187-22.482c.636 18.784-5.079 39.85-5.079 39.85h43.74s7.475-6.09 11.35-14.119c.83-12.457 2.769-13.01 2.769-13.01 8.103-6.425 14.064-18.653 18.547-34.882l-.277-11.072h4.706zm-50.015-54.364c4.675.867 8.023.87 12.698 1.736.527.306-.034 2.19-.498 4.107a3742 3742 0 0 1-3.646 14.689c.912-.833 9.353-6.917 11.243-8.316 1.89-1.398 6.761-6.247 8.504-5.743s4.119 4.343 5.656 7.474c4.152 6.644 1.661 31.835.554 37.372l-11.35 5.536a26 26 0 0 1-2.492-5.536 26 26 0 0 1-1.107-5.537c-1.417 4.67-1.618 5.309-1.939 6.09-.666 1.626-1.858 3.897-4.152 6.367H113.86a220 220 0 0 1-1.593-16.748h2.983c.232 1.436.649 2.621 1.377 3.875 5.842-1.177 10.718-3.559 14.612-7.164l.336-.034-.15-.137.15-.138-.336-.034c-3.896-3.605-8.771-5.986-14.612-7.164-.728 1.254-1.145 2.441-1.377 3.875h-3.267q-.044-1.712-.061-3.46a220 220 0 0 1 1.816-30.352.89.89 0 0 1 1.046-.758zM62.924 54.253a39.4 39.4 0 0 1 5.26-8.028c1.4-.21 4.262-.433 7.475.83a14.4 14.4 0 0 1 4.428 2.77c-.129-.476-.647-2.605.554-4.706a6.07 6.07 0 0 1 2.215-2.215l14.025-2.598a.89.89 0 0 1 1.045.76 220 220 0 0 1 1.755 33.812h-3.267c-.233-1.435-.649-2.621-1.377-3.875-5.843 1.177-10.718 3.559-14.612 7.164l-.336.034.15.137-.15.138.336.034c3.896 3.605 8.771 5.987 14.612 7.164.728-1.254 1.144-2.441 1.377-3.875h2.983a220 220 0 0 1-1.593 16.748H83.409c-2.293-2.47-3.486-4.741-4.151-6.367-.322-.781-.522-1.42-1.939-6.09a26 26 0 0 1-3.6 11.073L62.37 91.626c-1.106-5.538-3.598-30.729.555-37.373m35.71 121.25H88.67s2.61-12.731 3.24-19.187c.919-9.418.774-28.376.774-28.376s-10.69 18.521-15.99 26.458c-1.939-3.046-15.984-17.097-18.753-22.91-3.046-8.028-3.046-17.716-3.046-17.716l18.27 4.982c1.956 2.832 3.033 7.446 4.706 12.457 1.534-3.472 3.026-7.135 5.537-10.519 0 0 12.18 0 15.226 2.77.002-.003.002 50.934.002 52.041m7.198-61.733q-.55.003-1.107.002a135.7 135.7 0 0 1-42.908-7.198c0-2.122-.83-4.245-.83-6.367 10.668 2.897 26.064 5.711 43.46 5.813q.696.003 1.385.002.69.004 1.385-.002c17.397-.102 32.795-2.916 43.461-5.813 0 2.122-.83 4.245-.83 6.367a135.8 135.8 0 0 1-42.908 7.198c-.372.002-.74-.002-1.108-.002m47.892 17.718c-2.769 5.813-18.27 20.763-20.208 23.807-1.939 3.046-2.77 10.519-2.77 10.519l-7.751 9.69h-9.965V123.46c3.046-2.77 15.226-2.77 15.226-2.77 2.51 3.385 4.002 7.049 5.536 10.52 1.674-5.012 2.75-9.626 4.706-12.458l18.27-4.982c0 .002 0 9.69-3.044 17.718"/><path d="M105.833-.002 85.904 19.926h9.613v16.012a110 110 0 0 1 10.314.043c2.552-.13 6.295-.021 10.318.238V19.926h9.611zM38.7 38.698l.126 28.307 6.796-6.796 11.35 11.35c.159-5.378.86-11.795 2.904-17.308a38.5 38.5 0 0 1 2.881-6.085l-2.546-2.547 6.797-6.796H38.825Zm134.264 0-.125.125h-28.181l6.797 6.797-2.707 2.706c1.177 1.835 2.273 3.862 3.038 5.925 2.043 5.515 2.745 11.934 2.903 17.312l11.355-11.354 6.795 6.796zM19.928 85.902 0 105.83l19.927 19.928v-9.612H51.41l.163-6.529h-4.706V95.514h-26.94Zm171.809 0v9.612h-26.94v14.103h-4.706l.163 6.53h31.482v9.61l19.928-19.927zM57.91 139.164l-12.288 12.288-6.797-6.797v28.182l-.125.125 28.307-.125-6.795-6.796 9.917-9.917-.285-.554c-4.639-3.678-8.575-9.262-11.934-16.406m95.845 0c-3.36 7.144-7.295 12.728-11.934 16.406 0 0-.165.057-.415.423l10.048 10.048-6.796 6.796 28.306.125-.125-.124v-28.183l-6.796 6.797zM95.516 182.7v9.035h-9.612l19.928 19.928 19.928-19.927h-9.611V182.7h-10.316z"/></svg>