<svg xmlns="http://www.w3.org/2000/svg" viewBox="0 0 211.211 211.667"><path d="M99.847 199.11c-3.1-6.906-5.704-12.742-5.788-12.97-.122-.334.627-.155 3.807.91 2.178.729 3.987 1.325 4.02 1.325.034 0 .1-13.082.145-29.072.074-25.975.126-29.24.482-30.65.596-2.36 1.47-4.788 2.358-6.545l.792-1.568.495.961c.826 1.607 1.828 4.564 2.4 7.076.54 2.38.54 2.42.625 31.09.046 15.79.11 28.708.142 28.708.033 0 1.838-.595 4.012-1.323s3.918-1.233 3.876-1.123c-.509 1.325-11.52 25.738-11.608 25.737-.067 0-2.658-5.65-5.758-12.556M47.7 163.43c.094-.233 2.302-6.05 4.909-12.927s4.825-12.66 4.93-12.853c.13-.241.765.799 2.037 3.338 1.016 2.028 1.93 3.688 2.03 3.688.101 0 2.138-1.957 4.528-4.349l4.344-4.349-1.22-1.538c-2.74-3.452-5.347-8.059-7.033-12.424-.689-1.785-2.258-7.335-2.26-7.996 0-.104 1.549-.159 3.443-.122l3.444.068.667 2.32c1.284 4.466 2.878 7.92 5.43 11.761.71 1.07 1.515 2.148 1.79 2.396.493.447.52.435 2.027-.871 1.946-1.688 3.259-2.57 5.533-3.713 1.936-.974 5.103-2.137 5.295-1.945.32.32-2.096 5.435-3.671 7.774-.54.801-1.575 2.139-2.302 2.973l-1.322 1.516.575.484c1.305 1.099 5.317 3.66 7.13 4.551 2.676 1.316 4.46 2.003 7.16 2.757l2.308.645.067 3.43c.037 1.886-.017 3.43-.121 3.429-.508-.002-5.992-1.496-7.593-2.069-4.165-1.49-9.985-4.782-13.175-7.453l-1.188-.994-4.472 4.467-4.473 4.468 3.81 1.908c2.688 1.346 3.706 1.967 3.456 2.107-.421.236-25.919 9.948-26.117 9.948-.074 0-.06-.191.034-.425m102.38-4.617-13.184-5.017 3.807-1.907 3.807-1.906-.815-.893c-1.696-1.86-7.866-8.055-8.022-8.055-.09 0-.752.48-1.471 1.065-5.381 4.383-12.823 7.82-20.04 9.255l-.789.157v-3.425c0-2.535.08-3.448.304-3.509l2.367-.639c4.65-1.253 10.409-4.239 14.138-7.33l.665-.551-1.128-1.335c-1.718-2.035-3.594-5.022-5.054-8.05-.725-1.503-1.284-2.767-1.243-2.809.127-.126 3.57 1.39 5.246 2.311 2.022 1.111 4.139 2.523 5.82 3.884l1.33 1.075.683-.815c3.121-3.728 6.06-9.712 7.615-15.504l.228-.85 3.45-.067c1.899-.037 3.451.018 3.45.122s-.32 1.454-.71 3c-1.527 6.039-4.407 11.92-8.253 16.853-.625.801-1.226 1.605-1.336 1.787-.144.236 1.037 1.57 4.137 4.673 2.386 2.389 4.42 4.343 4.52 4.343.102 0 1.015-1.66 2.031-3.688 1.272-2.54 1.907-3.58 2.038-3.338.105.192 2.323 5.976 4.93 12.853a6301 6301 0 0 0 4.908 12.927c.093.234.076.42-.038.412-.115-.007-6.14-2.27-13.392-5.03m-137.396-47.1c-6.977-3.151-12.685-5.797-12.685-5.88 0-.145 25.222-11.653 25.54-11.653.088 0-.434 1.771-1.159 3.937-.724 2.165-1.317 3.962-1.317 3.994s13.027.098 28.95.146c28.411.085 28.989.096 31.014.595 2.387.588 4.676 1.42 6.563 2.384l1.327.678-1.457.67c-1.81.833-4.77 1.795-7.161 2.327-1.623.361-4.943.42-30.518.545l-28.696.14 1.3 3.945c.715 2.17 1.229 3.935 1.142 3.923-.087-.011-5.866-2.6-12.843-5.75m172.792 5.718c0-.046.593-1.855 1.318-4.02l1.318-3.937h-26.298c-27.13 0-29.244-.063-33.626-1.01-2.754-.594-7.89-2.375-7.61-2.637.11-.102 1.292-.592 2.628-1.088 2.907-1.08 6.708-1.967 9.843-2.298 1.373-.144 12.902-.243 28.679-.246l26.384-.005-1.315-3.927c-.723-2.16-1.273-3.97-1.223-4.02.128-.128 25.636 11.4 25.636 11.587 0 .084-5.708 2.705-12.685 5.825a4856 4856 0 0 0-12.867 5.766c-.1.05-.182.055-.182.01M59.964 97.646c.002-.58 1.53-6.076 2.178-7.836 1.594-4.324 4.665-9.732 7.344-12.932l.995-1.188-4.468-4.472-4.468-4.473-1.897 3.79c-1.044 2.084-1.94 3.749-1.99 3.699-.166-.167-10.047-26.29-9.972-26.365.079-.08 25.495 9.553 26.097 9.89.25.14-.768.76-3.455 2.106l-3.81 1.909 4.472 4.467 4.472 4.468 1.188-.995c3.235-2.709 8.935-5.933 13.175-7.452 1.6-.573 7.083-2.068 7.593-2.07.104 0 .158 1.546.121 3.436l-.067 3.436-2.064.548c-5.02 1.334-10.706 4.194-14.43 7.258l-.715.588 1.088 1.167c1.521 1.634 3.18 4.023 4.234 6.097 1.032 2.032 2.087 4.991 1.816 5.095-.28.107-3.576-1.267-5.228-2.178-2.027-1.118-4.13-2.594-5.666-3.976l-1.3-1.17-.476.593c-1.038 1.287-3.452 5.05-4.232 6.595-1.157 2.29-2.2 4.984-2.98 7.698l-.667 2.321-3.444.067c-1.894.038-3.444-.017-3.444-.121m84.235-.447c-.13-.343-.237-.724-.237-.846 0-.69-1.908-5.755-2.95-7.832-1.357-2.703-1.915-3.614-3.796-6.195-1.177-1.615-1.338-1.75-1.746-1.457a179 179 0 0 0-2.326 1.76 43 43 0 0 1-3.888 2.593c-2.157 1.241-5.422 2.748-5.59 2.58-.13-.13.857-2.391 2.142-4.911 1.033-2.027 2.685-4.583 4.147-6.415l.857-1.075-.89-.72c-3.73-3.015-9.346-5.81-14.21-7.069l-2.217-.574-.068-3.435-.067-3.436.917.165c6.632 1.188 14.35 4.724 19.87 9.102l1.473 1.169 4.452-4.457 4.452-4.457-3.814-1.91-3.814-1.91 13.277-5.037c7.302-2.77 13.31-5.004 13.35-4.963.075.075-9.806 26.198-9.972 26.365-.05.05-.945-1.615-1.99-3.699l-1.897-3.79-4.468 4.473-4.467 4.472.994 1.188c2.68 3.2 5.75 8.608 7.344 12.932.644 1.749 2.176 7.254 2.178 7.83 0 .1-1.532.181-3.404.181h-3.405zm-39.51-8.628c-.973-2.506-1.387-3.87-2.165-7.137-.364-1.524-.414-4.604-.493-29.921-.048-15.522-.164-28.222-.26-28.222-.094 0-1.845.557-3.89 1.239-2.044.681-3.764 1.192-3.821 1.135C93.937 25.542 105.426 0 105.605-.001c.095 0 11.3 24.823 11.608 25.715.042.123-1.702-.372-3.876-1.1s-3.98-1.323-4.011-1.323c-.033 0-.1 12.59-.149 27.98-.08 25.035-.133 28.196-.499 30.042-.502 2.528-1.632 6.427-2.421 8.35l-.588 1.432z"/></svg>