<svg xmlns="http://www.w3.org/2000/svg" xml:space="preserve" viewBox="0 0 765.622 800"><path d="M0 241.964c77.44-.087 154.878-.175 232.317-.175 1.58 13.944 6.929 44.903 29.818 75.598 24.118 32.36 54.2 46.393 67.266 51.567L299.233 646.35l-76.563-27.8 41.746-87.087c-5.438-3.244-11.138-6.753-16.926-10.699a335 335 0 0 1-17.102-12.278c-22.802 21.837-45.604 43.762-68.406 65.6l-50.164-54.813 73.141-53.848c-4.385-5.525-8.857-11.4-13.33-17.715-5.525-7.718-10.524-15.348-15.084-22.627-29.117 14.12-58.146 28.152-87.262 42.272L26.836 385.18c36.133-6.49 72.265-12.98 108.398-19.557-1.316-5.087-2.456-10.788-3.333-16.927s-1.403-11.927-1.579-17.101c-39.465.263-78.93.438-118.395.702zm765.622 0c-77.44-.087-154.879-.175-232.318-.175-1.578 13.944-6.928 44.903-29.818 75.598-24.117 32.36-54.199 46.393-67.266 51.567l30.17 277.396 76.562-27.8-41.657-87.087c5.437-3.244 11.137-6.753 16.926-10.699a335 335 0 0 0 17.101-12.278c22.802 21.837 45.604 43.762 68.406 65.6l50.165-54.813-73.142-53.848c4.385-5.525 8.858-11.4 13.33-17.715 5.525-7.718 10.524-15.348 15.085-22.627 29.116 14.12 58.145 28.152 87.261 42.272l42.447-82.175c-36.132-6.49-72.265-12.98-108.397-19.557 1.315-5.087 2.455-10.788 3.332-16.927s1.404-11.927 1.579-17.101c39.465.263 78.93.438 118.395.702z"/><path d="M413.769 267.047h22.451l25.609-25.258 41.57 42.71-41.483 41.219-23.065-22.977-21.311.438 25.784 353.08L383.337 800l-62.706-143.565 28.064-353.431-20.17-.088-23.767 22.1-42.886-43.06 41.22-40.167 26.31 25.258h23.59l10.963-140.759-38.939-30.256L383.25 0l58.145 95.68-38.324 30.17z"/></svg>