<svg xmlns="http://www.w3.org/2000/svg" xml:space="preserve" viewBox="0 0 833.072 800"><path d="m644.175 339.397 87.362-49.394 17.695 56.61 83.84-224.977-191.56.688 21.132 43.638-54.634 39.514c0-1.202.086-2.49.086-3.694C608.096 90.368 517.814 0 406.314 0 306.41 0 223.516 72.587 207.452 167.937l-45.184-34.704 32.728-29.292L0 69.838 66.144 349.36l22.42-73.617 85.902 73.617.343.258C91.743 363.19 28.347 435.349 28.347 522.28c0 96.639 78.343 174.98 174.982 174.98 64.598 0 121.035-35.047 151.358-87.19l4.639 76.797-28.606-5.412L419.886 800l91.4-127.478-28.606 10.223s1.546-50.425 3.264-66.746c31.698 42.435 82.294 69.924 139.332 69.924 95.952 0 173.78-77.827 173.78-173.779 0-89.595-67.777-163.298-154.881-172.747m-440.932 295.5c-62.193 0-112.617-50.424-112.617-112.616s50.424-112.617 112.617-112.617c62.192 0 112.702 50.338 112.702 112.53s-50.424 112.703-112.702 112.703m201.782-296.531c-77.311 0-139.933-62.622-139.933-139.934S327.714 58.5 405.025 58.5c77.312 0 139.934 62.622 139.934 139.933 0 77.312-62.622 139.934-139.934 139.934M625.191 633.18c-66.832 0-121.036-54.203-121.036-121.035s54.29-121.035 121.121-121.035c66.832 0 120.95 54.204 120.95 121.035 0 66.832-54.204 121.035-121.035 121.035"/><path d="M273.768 466.101c-12.714-37.195-50.424-43.036-66.746-43.81 0 0-1.374-.085-3.78-.085h-.171c-2.405 0-3.78.085-3.78.085-16.235.774-53.946 6.615-66.66 43.81-10.909 31.784 9.708 67.605 5.584 72.415-16.75 19.414 6.013 50.166 9.106 52.658 5.584 4.552 23.451-4.725 20.616.086-2.147 3.607-4.123 31.096-4.123 31.096h5.498l2.663-9.535 4.724-.086.945 9.62h9.621l.945-9.19 3.178-.43.43 9.62h7.817l.515-9.878h6.357l.344 9.879h7.817l.43-9.621 3.178.43.944 9.19h9.621l.945-9.62 4.725.086 2.663 9.535h5.498s-1.976-27.489-4.124-31.096c-2.834-4.811 15.033 4.466 20.617-.086 3.092-2.577 25.856-33.244 9.105-52.658-4.209-4.896 16.407-40.717 5.498-72.415m-80.833 92.43c-2.148 2.491-5.326 5.326-9.621 7.731-10.309 5.756-20.445 4.982-24.568 4.381q-.387 0-.773-.258c-9.02-5.669-12.456-14.603-9.793-20.1.43-.86 1.89-3.608 6.614-5.326.258-.086.516-.086.86-.086 5.669.515 12.713 1.632 20.53 4.123 6.357 1.976 11.682 4.381 16.15 6.7 1.116.43 1.374 1.89.6 2.835m21.475 33.588c0 .6-.859.859-1.203.43a20.4 20.4 0 0 0-4.123-3.952c-1.89-1.375-3.694-2.234-5.154-2.75-1.374.516-3.264 1.375-5.154 2.75-1.804 1.288-3.093 2.748-4.123 3.951-.43.515-1.203.258-1.203-.43-.344-4.724-.086-14.26 6.958-21.303.945-.945 2.062-1.718 3.522-2.491 1.374.773 2.577 1.546 3.522 2.491 7.044 7.044 7.302 16.665 6.958 21.304m34.446-21.648q-.386.258-.773.258c-4.123.601-14.26 1.375-24.567-4.38-4.296-2.406-7.388-5.327-9.621-7.732a1.923 1.923 0 0 1 .515-3.007 94.5 94.5 0 0 1 16.15-6.7c7.816-2.491 14.946-3.608 20.53-4.123.258 0 .515 0 .859.086 4.724 1.718 6.185 4.553 6.614 5.326 2.663 5.67-.687 14.603-9.707 20.272m448.922-116.138c-13.143-38.312-51.884-44.24-68.635-45.013 0 0-1.46-.086-3.866-.086h-.171c-2.491 0-3.866.086-3.866.086-16.75.773-55.492 6.787-68.635 45.013-11.167 32.642 9.964 69.58 5.67 74.562-17.267 19.93 6.184 51.627 9.363 54.204 5.755 4.724 24.138-4.81 21.217.086-2.147 3.78-4.209 32.041-4.209 32.041h5.67l2.748-9.879 4.897-.086.945 9.88h9.878l.945-9.45 3.265-.43.43 9.88h8.074l.343-10.137h6.529l.344 10.136h8.074l.43-9.879 3.264.43.945 9.45h9.879l.945-9.88 4.896.086 2.749 9.879h5.67s-2.062-28.262-4.21-32.041c-2.92-4.897 15.462 4.553 21.218-.086 3.178-2.577 26.63-34.189 9.363-54.204-4.21-5.068 17.008-41.92 5.841-74.562M614.54 549.51c-2.234 2.492-5.498 5.498-9.879 7.99-10.566 5.926-21.046 5.153-25.255 4.552-.258 0-.601-.086-.773-.258-9.277-5.841-12.8-15.032-10.05-20.702.43-.859 1.975-3.78 6.786-5.498.257-.085.601-.085.859-.085 5.841.515 13.143 1.718 21.132 4.209 6.528 2.061 12.026 4.467 16.579 6.872 1.202.43 1.46 1.89.6 2.92m22.076 34.533c0 .687-.859.945-1.288.43a24 24 0 0 0-4.21-4.124 20.4 20.4 0 0 0-5.325-2.835c-1.46.516-3.35 1.46-5.326 2.835a24 24 0 0 0-4.21 4.123c-.429.516-1.202.258-1.288-.43-.343-4.81-.086-14.688 7.13-21.904.945-.945 2.148-1.718 3.608-2.491 1.374.773 2.663 1.632 3.608 2.49 7.473 7.217 7.645 17.095 7.301 21.906m35.478-22.335q-.387.258-.773.258c-4.21.601-14.69 1.46-25.255-4.553-4.381-2.49-7.646-5.497-9.879-7.988-.859-.945-.601-2.492.601-3.093 4.553-2.405 10.137-4.81 16.58-6.872 8.074-2.491 15.376-3.694 21.131-4.21.258 0 .601 0 .859.087 4.81 1.804 6.357 4.638 6.786 5.497 2.663 5.842-.859 15.033-10.05 20.874M497.026 120.777c-16.665-48.534-65.8-56.093-87.018-57.124 0 0-1.804-.086-4.897-.086h-.172c-3.092 0-4.896.086-4.896.086-21.218 1.03-70.353 8.59-87.018 57.124-14.174 41.405 12.713 88.221 7.216 94.492-21.82 25.255 7.902 65.371 11.854 68.721 7.302 5.927 30.58-6.099 26.887.086-2.749 4.725-5.326 40.631-5.326 40.631h7.216l3.436-12.455 6.185-.086 1.202 12.541h12.542l1.203-11.94 4.209-.601.601 12.541h10.222l.516-12.885h8.246l.516 12.885h10.222l.601-12.541 4.21.601 1.202 11.94h12.542l1.202-12.541 6.185.086 3.436 12.455h7.216s-2.577-35.82-5.326-40.631c-3.694-6.27 19.586 5.841 26.887-.086 4.038-3.35 33.76-43.38 11.855-68.721-5.67-6.27 21.217-53.087 7.044-94.492M391.539 241.47a50 50 0 0 1-12.542 10.136c-13.4 7.56-26.715 6.443-32.041 5.756-.344 0-.687-.172-1.03-.344-11.77-7.473-16.236-18.984-12.714-26.286.515-1.116 2.49-4.724 8.676-6.958.343-.086.687-.172 1.03-.172 7.474.688 16.665 2.148 26.802 5.326a128 128 0 0 1 21.046 8.676c1.46.773 1.804 2.663.773 3.866m28.004 43.81c0 .859-1.031 1.116-1.547.515a28 28 0 0 0-5.326-5.154c-2.49-1.804-4.896-3.007-6.7-3.608a29 29 0 0 0-6.7 3.608 28 28 0 0 0-5.326 5.154c-.515.601-1.546.344-1.546-.515-.43-6.1-.086-18.641 9.105-27.747 1.203-1.202 2.75-2.233 4.553-3.178 1.804 1.03 3.35 1.976 4.553 3.178 9.105 9.106 9.363 21.648 8.934 27.747m44.926-28.348c-.344.172-.601.344-1.03.344-5.413.773-18.641 1.804-32.042-5.756-5.584-3.092-9.707-6.958-12.542-10.136-1.03-1.203-.773-3.092.688-3.866a128 128 0 0 1 21.045-8.676 131 131 0 0 1 26.802-5.325c.343 0 .687 0 1.03.171 6.1 2.234 8.075 5.928 8.677 6.958 3.607 7.302-.86 18.899-12.628 26.286"/></svg>