<svg xmlns="http://www.w3.org/2000/svg" viewBox="0 0 171.404 211.667"><path d="M87.874 0 60.401 26.696 32.947 53.399l47.685.053-.117 22.765q-31.107 0-62.213-.003c.515-10.349 1.608-18.02 9.257-35.423C5.481 65.177 5.745 73.751 5.145 76.213c-.681 2.79-1.11 14.345-1.11 14.345l14.344.013-.002-.012 62.064.001-.122 23.923c-38.521-.111-39.328 1.06-60.596-7.666 7.396 10.855 13.688 21.248 37.51 22.052 8.932.003 18.08-.013 23.012-.021v.048l14.344-.014v-.05l42.277-.035v14.842c-15.114-6.23-34.543-9.657-54.647-9.64a175 175 0 0 0-8.248.215C29.703 136.409-2.911 154.686.205 175.551c3.117 20.867 40.845 36.824 85.331 36.091 26.388-.438 50.741-6.776 65.534-17.053-2.555 1.42-25.814 6.55-62.142 6.977-37.054.436-69.309-14.696-71.905-27.113s24.53-23.297 61.402-24.603c32.933-1.167 63.038 5.677 72.785 15.935v-37h.03l-.03-5.542v-8.802h-14.344v.012l-42.203.036.123-23.928 62.275.002-.002.016 14.344-.015s-.429-11.554-1.11-14.344c-.6-2.462-.336-11.036-22.414-35.422 7.649 17.402 8.742 25.073 9.258 35.422l-62.278-.003.117-22.75 47.49.041L115.18 26.75zm0 0 14.083 22.247 14.072 22.25-28.241-.04-28.24-.05 14.158-22.205z"/></svg>