<svg xmlns="http://www.w3.org/2000/svg" xml:space="preserve" viewBox="0 0 841.514 800"><path d="M815.399 454.05c-17.38 0-31.392-16.743-31.392-37.308 0-20.564 14.013-37.306 31.392-37.306 8.19 0 15.65 3.73 21.201 9.827 1.729 1.91 4.914.728 4.914-1.91-.273-29.3-2.821-56.87-7.553-82.894-.455-2.548-4.003-3.185-5.186-.91-3.64 6.824-9.645 12.102-17.289 14.376-16.196 4.823-33.667-5.823-38.944-23.748s3.549-36.397 19.745-41.129c8.735-2.548 17.743-.728 25.114 4.368 2.184 1.547 5.095-.637 4.276-3.185-10.919-34.759-26.205-65.969-45.222-93.63-1.82-2.64-5.733-1.73-6.37 1.364-1.183 5.915-4.004 11.465-8.462 15.924-12.648 12.648-33.85 12.01-47.225-1.456-13.467-13.467-14.104-34.668-1.456-47.225 6.097-6.096 14.104-9.099 22.384-9.099 3.185 0 4.732-3.73 2.548-6.005-25.842-25.842-55.778-47.225-89.172-64.331-2.912-1.547-6.096 1.546-4.823 4.55 3.367 7.915 3.731 16.65.091 24.567-7.37 16.014-28.116 22.293-46.405 13.922-18.29-8.372-27.116-28.208-19.746-44.222 3.276-7.189 9.282-12.466 16.56-15.196 3.004-1.183 2.913-5.55-.181-6.642C541.696 8.917 483.278 0 421.04 0h-.091C184.462 14.468 23.86 211.192.02 386.988c-.182 1.274.82 2.457 2.184 2.366 36.124-.819 108.19-2.275 143.767-6.733 3.913-.455 4.64-5.824 1.001-7.37-13.74-5.915-22.748-12.103-24.932-19.109-.455-1.365.637-2.73 2.093-2.73 10.828.273 44.495-8.917 61.329-21.2 1.365-1.002 1.092-3.095-.455-3.732-6.734-2.73-21.93-6.096-18.927-9.19 19.564-4.367 44.586-9.918 68.153-26.387 1.456-1.001 1.092-3.367-.728-3.822-16.196-4.095-28.39-8.735-33.03-14.923-1-1.365-.182-3.184 1.456-3.366 23.931-2.275 51.41-3.731 72.066-16.197 1.547-1 1.274-3.367-.546-3.822-15.833-4.64-29.118-10.19-27.662-21.656.091-1 .91-1.728 1.911-1.82 72.157-7.734 107.37 18.199 106.733 76.889 0 .91-.545 1.728-1.455 2.001-18.017 6.097-36.488 3.731-57.325 1.73-1.73-.183-2.912 1.637-2.093 3.184 5.732 10.1 10.282 16.56 12.739 20.746.455.728.364 1.638-.091 2.366-9.372 12.739-21.201 8.644-39.127-1.365-1.365-.728-3.093.182-3.184 1.729-.273 8.098 3.64 13.285 8.189 18.107.728.82.819 2.002.09 2.821-9.735 11.465-27.479 10.646-46.769 6.915-3.185-.637-5.46 3.094-3.367 5.642 4.914 6.005 9.282 10.737 12.83 13.285 1.274.91 1.183 2.911-.273 3.64-10.009 4.913-24.477 5.55-39.672 5.095-3.549-.091-4.823 4.64-1.729 6.278 32.302 17.198 83.349 18.836 127.57 13.194.546-.09 1.001-.273 1.274-.728 40.31-44.95 90.446-76.25 148.408-96.906 1.729-.637 1.91-3.003.273-3.913-12.83-6.642-23.84-17.47-32.666-31.938-.819-1.365.182-3.185 1.82-3.185 116.56-.273 177.707 63.877 181.983 194.54v.456C599.293 591.356 506.3 664.33 396.2 679.709c-127.934 8.917-237.67-48.59-336.123-162.42-1.456-1.73-4.186-.274-3.64 1.91 25.023 96.179 84.44 180.437 183.167 231.938 1.729.91 3.912-.273 4.094-2.183.273-3.276 1.456-6.37 3.64-8.918 6.552-7.825 19.745-7.552 29.3.546 9.645 8.099 12.101 21.02 5.459 28.754-.182.273-.455.455-.637.728 14.923 5.732 30.482 10.919 46.952 15.286 2.184.546 4.185-1.547 3.367-3.64-1.092-3.002-1.456-6.187-.91-9.462 2.001-10.647 13.648-17.47 25.932-15.196 12.284 2.275 20.655 12.83 18.654 23.567a18 18 0 0 1-5.187 9.554 2.836 2.836 0 0 0 1.456 4.822c11.01 2.002 22.293 3.64 33.849 5.005h.182c14.559 0 28.935-.546 43.13-1.547 2.548-.182 3.549-3.367 1.547-5.004-5.187-4.277-8.462-10.373-8.462-17.107 0-13.103 12.193-23.658 27.297-23.658s27.298 10.555 27.298 23.658c0 4.55-1.547 8.826-4.095 12.466-1.456 2.002.182 4.823 2.73 4.459 28.662-4.459 56.142-11.101 82.347-20.019 2.457-.819 2.548-4.367.091-5.277-5.55-2.093-10.373-5.915-13.466-11.283-7.644-13.285-1.911-30.937 12.738-39.4 14.741-8.462 32.849-4.64 40.492 8.645 4.64 8.098 4.367 17.743.09 26.023-1.182 2.366 1.275 4.914 3.731 3.822 32.576-15.196 62.512-34.213 89.081-57.143 1.82-1.547.91-4.64-1.546-4.913-6.097-.546-12.102-3.003-17.198-7.189-13.376-11.192-14.922-31.21-3.64-44.677 11.374-13.467 31.393-15.286 44.677-4.094 6.46 5.46 10.192 13.011 11.01 20.928.273 2.457 3.276 3.457 4.914 1.547 18.562-21.656 34.759-45.86 48.317-72.52 1.092-2.185-1.001-4.732-3.367-3.914-7.188 2.366-15.287 2.366-23.112-.454-17.561-6.46-26.934-25.023-20.837-41.493 6.096-16.47 25.205-24.659 42.766-18.198 8.917 3.276 15.742 9.736 19.472 17.38 1.092 2.274 4.368 2.092 5.187-.274 9.918-28.116 17.197-58.416 21.656-90.991-3.73-1.911-1.001-.546-4.64-2.457-5.37 4.094-11.648 6.733-18.563 6.733M123.224 219.107c-3.548 2.548-8.007-1.547-5.823-5.277 14.922-25.114 42.402-59.6 76.069-80.073 12.557-2.093 21.565-.819 24.568 6.37-12.375 16.378-58.508 52.684-94.814 78.98"/></svg>