<svg xmlns="http://www.w3.org/2000/svg" xml:space="preserve" viewBox="0 0 458.392 800"><path d="M20.247 293.987H0v362.016h458.392V293.987H437.66v345.819H20.247zm233.651 371.735h-46.812v52.075c-.243 10.934 3.888 36.607 8.828 54.343 4.454 15.55 9.152 18.627 14.254 26.564V800c.162-.162.243-.486.486-.648.081.162.162.243.243.486v-.81c5.264-8.018 9.961-11.014 14.254-26.564 4.94-17.655 9.151-43.41 8.828-54.343z"/><path d="M206.924 352.298h46.164l-.324-116.866a2037 2037 0 0 1 83.174 2.673v-28.346c-31.747 5.102-63.413 7.937-95.16 8.423-.243-49.484.08-178.255 1.862-191.942l7.208.081c1.053 0 2.106-.89 2.106-2.025v-9.313c0-1.053-.81-1.863-1.782-2.025-2.268-.162-4.535-.324-6.803-.567-.08-1.053-.81-5.669-4.94-9.151C235.756.972 232.84.405 231.22.243V0c-1.296.081-4.697.486-7.856 3.078-4.13 3.32-4.86 8.017-4.94 9.151-2.268.162-4.536.324-6.803.567-.972.081-1.782.972-1.782 2.025v9.151c0 1.053.89 2.025 2.106 2.025l7.208-.08c1.862 13.767 2.186 142.7 1.943 192.265-32.07-.486-64.061-3.24-96.132-8.423v28.346a1974 1974 0 0 1 81.878-2.673z"/><path d="M223.122 358.777h-24.296v-78.64C138.814 283.864 85.36 282 34.42 277.79v348.249c62.847 2.753 125.774 4.211 188.702 4.292zm36.445 0H235.27V630.33c62.847-.081 125.775-1.539 188.702-4.292V277.789c-47.054 6.317-103.421 5.912-164.405 2.106z"/></svg>