<svg xmlns="http://www.w3.org/2000/svg" xml:space="preserve" viewBox="0 0 577.94 800"><path d="M574.223 671.49c-43.011-65.767-86.38-131.177-129.151-196.944-5.6-8.578-11.676-11.557-21.565-11.557-22.4.12-44.917.239-67.316.239H221.56c-22.4 0-44.917 0-67.316-.12-8.102 0-14.178 1.43-19.301 9.055C91.456 537.93 47.492 603.46 4.005 669.345c-2.74 4.17-5.243 11.438-3.336 14.654 2.025 3.456 9.412 5.004 14.416 5.004 50.517.358 101.033.12 151.55.358 5.123 0 11.08-.12 15.13 2.383 26.093 16.322 53.496 31.334 71.844 57.188 10.485 14.655 19.897 30.024 29.905 45.036 5.361 7.983 12.033 8.102 15.25 0 17.99-45.75 52.304-75.655 94.123-98.293 7.387-3.931 15.489-6.076 23.829-6.076 49.325-.476 98.77-.119 148.094-.476 3.336 0 6.672-1.192 10.008-2.383 2.264-.834 3.575-3.217 2.979-5.6-.834-3.336-1.787-6.791-3.574-9.65M436.85 273.433c-10.603-1.31-18.109-6.91-23.828-16.084-13.344-21.565-14.178-21.803-30.024-.834-14.059 18.467-31.334 28.951-54.686 25.258-23.233-3.693-46.228-8.578-69.103-13.82-9.77-2.264-15.37-.477-17.395 10.007-1.192 6.672-3.813 13.106-5.004 19.778-6.672 37.054-30.5 54.568-66.244 58.261-9.888 1.072-20.016 1.072-29.904.715-11.2-.477-22.28-2.383-33.48-2.979-10.484-.476-14.297 5.362-9.412 14.178 12.748 23.233 25.616 46.347 39.079 69.103 2.264 3.813 7.744 6.91 12.033 6.91 45.632.477 91.383.358 137.015.358v-.358H421.72c6.076 0 10.96.12 13.463-8.22 13.344-45.275 27.522-90.31 41.462-135.466 7.148-22.994 7.148-22.875-17.157-24.067-7.506-.357-15.131-1.787-22.637-2.74"/><path d="M52.258 247.222c5.838 20.254 13.105 40.27 20.73 59.928 7.149 18.348 21.923 28.476 40.866 31.335 12.63 1.906 25.497 3.098 38.245 2.502 41.82-2.264 56.593-13.94 69.699-53.614 4.05-12.51 7.506-25.14 11.438-38.483 4.527 1.072 8.22 2.144 12.152 2.74 28.356 4.527 56.593 9.412 85.068 13.106 13.106 1.668 25.14-3.813 32.526-14.655 8.46-12.39 15.37-25.973 21.922-39.555 1.073-2.145-2.025-8.221-4.765-9.89-7.864-4.646-16.323-8.22-24.782-11.795-51.708-22.16-103.297-44.44-155.124-66.124-3.932-1.668-11.08-.476-14.416 2.264-42.892 34.909-85.426 70.175-127.602 105.918-4.051 3.336-7.268 11.676-5.957 16.323m359.692-47.896c0 9.65-.358 19.182.12 28.833.952 20.135 18.585 32.168 46.227 30.143 6.672-.477 16.084-4.528 18.824-9.77 17.038-33.24 35.028-66.243 48.372-101.033 10.961-28.833-2.502-61.716-30.977-73.511-27.165-11.2-48.968-3.575-59.929 22.041-14.178 32.764-23.829 66.84-22.637 103.297M73.942 171.09c4.289 10.245 9.174 11.437 18.467 4.17 23.59-18.587 46.942-37.412 70.056-56.594 2.978-2.502 6.433-7.267 6.076-10.723-2.145-28.951-8.34-56.95-20.85-83.28-5.6-12.153-15.727-18.468-29.19-15.132-16.084 4.051-32.169 8.817-47.538 15.25-18.229 7.507-25.02 22.638-22.756 38.246 2.74 40.032 11.795 74.702 25.735 108.062m239.715-21.803c21.922 9.65 43.725 19.54 65.41 29.428.357.12.595.239.953.358.238.119.476.238.714.238.477.12.834.238 1.192.357.119 0 .357.12.476.12.596.119 1.073.238 1.55.357h.357c.357.12.715.12 1.191.12h1.311c.238 0 .357 0 .476-.12.239 0 .477-.12.715-.12.12 0 .358-.118.477-.118.238-.12.476-.12.715-.239.119-.119.357-.119.476-.238.238-.119.358-.238.596-.357.12-.12.357-.239.476-.239.239-.119.358-.238.596-.357.12-.12.238-.238.477-.357l.476-.477c.12-.12.239-.238.358-.477.119-.238.357-.357.476-.595.12-.12.239-.358.358-.477.119-.238.238-.476.476-.715.12-.238.239-.357.358-.595.119-.239.238-.596.357-.834.12-.239.12-.358.238-.596l.358-1.072c.12-.12.12-.358.238-.477.238-.596.358-1.072.596-1.668 4.527-16.203 10.484-32.05 13.701-48.491 3.932-19.182 6.315-38.602 8.102-58.142 1.191-13.94-6.195-23.352-19.42-28.356-17.99-6.91-36.577-8.936-55.402-5.719-18.943 3.217-30.262 14.06-33.36 32.884-2.383 14.535-3.336 29.428-5.361 47.419v3.455c0 2.978.119 6.314.119 10.008v1.668c0 1.43 0 2.978-.12 4.527v.715c0 .953-.118 1.906-.118 2.86-.834 8.22 1.906 13.105 9.412 16.322m-109.373-45.632c22.875 10.485 46.227 20.135 69.222 30.263 8.936 3.931 12.629.476 13.94-8.102 4.527-28.594 6.314-57.189.357-85.902C281.488 9.055 271.123 0 239.669 0c-40.27 0-48.61 8.46-48.49 54.806.833 8.459 1.786 23.352 4.288 37.887.596 4.17 4.885 9.174 8.817 10.961"/></svg>