<svg xmlns="http://www.w3.org/2000/svg" xml:space="preserve" viewBox="0 0 642.388 800"><path d="M642.388 320.467h-24.124v-21.108c1.508-27.14-33.174-42.224-33.174-42.224s11.011-90.482-13.576-156.83c-11.298-30.492-27.14-52.774-43.732-67.858-16.592-15.083-51.599-20.395-85.957-25.632A598 598 0 0 0 321.185.78a598 598 0 0 0-120.64 6.034c-34.359 5.237-70.874 13.575-85.957 25.632-15.084 12.058-32.434 37.376-43.733 67.857-24.587 66.349-13.575 156.83-13.575 156.83s-34.683 15.084-33.174 42.225v21.108H0v81.432h25.633l-1.509 60.315c24.42 88.4 56.892 155.008 101.032 190.005 0 0 10.558 3.017 15.083 70.874C161.347 766.826 202.063 800 202.063 800h238.262s40.717-33.174 61.824-76.907c4.525-67.857 15.084-70.874 15.084-70.874 44.14-34.997 76.61-101.605 101.03-190.005l-1.508-60.315h25.633zM369.951 24.332c25.467 4.719 50.933 9.43 76.399 14.149 2.868 1.665 8.217 5.339 12.066 12.066 6.543 11.447 3.711 23.042 3.017 25.633 4.97-4.534 12.955-10.679 24.124-15.084 17.499-6.884 33.091-5.654 40.716-4.525 10.29 12.197 20.275 26.679 28.65 43.733 22.616 36.191 9.05 173.413 3.016 203.571-20.608 10.05-41.215 20.108-61.823 30.158a142.4 142.4 0 0 1-13.575-30.158 142.4 142.4 0 0 1-6.034-30.158c-7.717 25.439-8.81 28.918-10.558 33.175-3.628 8.855-10.124 21.228-22.616 34.682h-78.415a1200 1200 0 0 1-8.68-91.231h16.249c1.268 7.819 3.535 14.278 7.505 21.107 31.823-6.412 58.38-19.386 79.59-39.022l1.833-.185c-.269-.26-.546-.5-.815-.75.269-.26.546-.5.815-.75l-1.833-.185c-21.218-19.636-47.776-32.61-79.59-39.022-3.97 6.829-6.237 13.297-7.505 21.107h-17.795q-.236-9.327-.333-18.85a1198 1198 0 0 1 9.892-165.334c.361-2.758 2.97-4.636 5.7-4.127M87.465 100.304c8.375-17.045 18.36-31.527 28.65-43.733 7.625-1.138 23.217-2.36 40.716 4.525 11.169 4.396 19.155 10.54 24.124 15.084-.703-2.591-3.526-14.186 3.017-25.633 3.84-6.727 9.198-10.392 12.066-12.066 25.467-4.72 50.933-9.43 76.399-14.15 2.73-.508 5.339 1.38 5.69 4.137a1199 1199 0 0 1 9.893 165.335c-.056 6.348-.176 12.631-.333 18.85h-17.795c-1.268-7.82-3.535-14.279-7.505-21.108-31.823 6.413-58.381 19.386-79.59 39.023l-1.833.185c.269.259.546.5.815.75-.269.258-.546.499-.815.749l1.833.185c21.218 19.636 47.776 32.61 79.59 39.023 3.97-6.83 6.237-13.298 7.505-21.108h16.25c-1.851 32.6-4.914 63.1-8.68 91.232h-78.416c-12.493-13.455-18.989-25.827-22.616-34.683-1.749-4.257-2.84-7.736-10.558-33.174a142.2 142.2 0 0 1-6.034 30.157 141.7 141.7 0 0 1-13.575 30.158c-20.608-10.05-41.216-20.108-61.823-30.158-6.025-30.167-19.6-167.389 3.025-203.58m194.521 660.48h-54.282L185.48 708s-4.525-40.716-15.083-57.298c-10.559-16.592-94.998-98.015-110.082-129.68-16.592-43.734-16.592-96.507-16.592-96.507l99.523 27.14c10.651 15.427 16.518 40.56 25.633 67.858 8.356-18.915 16.48-38.866 30.158-57.299 0 0 66.348 0 82.94 15.084.01-.01.01 277.452.01 283.485zm39.208-336.278c-2.008.009-4.007.018-6.033.009-99.745-.51-180.465-21.127-233.729-39.208 0-11.558-4.525-23.125-4.525-34.683 58.113 15.778 141.979 31.111 236.745 31.666 2.527.019 5.034.01 7.542.01 2.508.008 5.016.008 7.542-.01 94.766-.555 178.641-15.888 236.745-31.666 0 11.558-4.525 23.125-4.525 34.683-53.264 18.072-133.984 38.699-233.729 39.208-2.026.009-4.025-.01-6.033-.01m260.879 96.515c-15.084 31.666-99.523 113.098-110.082 129.68-10.558 16.592-15.083 57.3-15.083 57.3l-42.224 52.782h-54.282V477.288c16.592-15.083 82.94-15.083 82.94-15.083 13.677 18.433 21.802 38.393 30.158 57.299 9.115-27.299 14.981-52.432 25.632-67.857l99.523-27.141c0 .009 0 52.782-16.582 96.515"/></svg>