<svg xmlns="http://www.w3.org/2000/svg" xml:space="preserve" viewBox="0 0 372.441 800"><path d="M186.216 799.438 32.17 687.884l52.137-109.097-61.873-7.279v-6.096l69.061-10.919v-9.736l-37.943-67.424a4.34 4.34 0 0 1 1.183-5.459l12.557-7.097L19.34 319.102l11.647-7.097-26.66-112.737 7.279-4.822-11.1-60.69 3.82-2.276-3.093-38.306 21.2-11.556 8.827 43.948 7.37.546 8.644 58.598 10.737-.455 23.93 88.988-9.736-111.554 8.462-1.183-7.279-71.518h7.28l1.182-56.96 23.02-3.64 6.097 60.6 7.28 1.183 2.456 64.239h7.279l15.741 84.894 2.457-109.097h8.462l-2.457-75.158h6.097L164.378.455h26.205l1.638 50.954h6.915l-.819 78.525 8.826.273v140.67l11.829-115.193 9.281 1.183V78.069l7.916-.273 2.275-56.231 25.477 3.184 3.367 53.775 4.822 2.002 2.548 77.888 7.188 2.456-5.914 119.652s13.375 4.823 13.375 23.02 32.757-63.055 32.757-63.055v-50.955s14.558-25.477 23.02-23.02 17.015 73.975 17.015 73.975 7.28 0 9.736 8.462-27.843 82.437-27.843 82.437 3.64 3.64 1.183 15.74-42.401 114.011-42.401 114.011 18.198 4.823 19.38 13.376c1.184 8.462-37.578 71.518-37.578 71.518l64.239 15.741v9.736l-63.602 9.827 51.5 105.275z"/></svg>