<svg xmlns="http://www.w3.org/2000/svg" xml:space="preserve" viewBox="0 0 201.04 201.04"><path d="M86.017 87.55c3.23 3.48 6.33 7.02 9.65 10.34 2.92 2.91 3.6 3.85 7.92 1.01 4.2-2.76 8.49-5.1 10.73-9.92.26-.04.53-.07.79-.11.75 2.08 1.8 4.11 2.15 6.26.34 2.08.98 3.71 2.51 5.19 6.18 5.96 13.59 9.02 22.08 9.5 5.36.3 10.76.8 16.09.47 2.82-.18 5.72-1.61 8.25-3.06 3.76-2.16 4.98-7.07 2.99-10.93-1.46-2.83-4.27-3.45-7.15-3.7-1.22-.11-2.45-.02-4.2-.02.46 2.99.71 5.78 1.38 8.47.5 1.99-.22 2.87-1.97 3.13-1.38.2-2.81.25-4.21.15-8.45-.59-16.42-3.15-24.19-6.27-2.85-1.15-5.48-3.14-6.31-6.58-.15-.61-.58-1.18-.98-1.7-3.66-4.69-7.37-9.34-10.98-14.06-.5-.66-.79-1.62-.84-2.46-.17-3.22-.47-6.48-.17-9.67.15-1.59 1.15-3.44 2.34-4.55 7.49-7.03 16.23-8.52 26.01-5.68 5.59 1.63 9.34 5.37 11.94 10.15 1.06 1.95.6 4.74.77 7.16.03.46-.34.93-.43 1.42-.91 4.69.7 6.65 5.48 6.88 8.67.41 16.48 3.14 21.9 10.12 1.99 2.57 2.9 6.34 3.32 9.69.84 6.53-1.37 12.48-6.32 16.76-2.68 2.31-6.37 4.47-9.76 4.74-7.36.6-14.83-.04-22.25-.22-1.32-.03-2.63-.34-3.95-.43-3.85-.28-5.18.94-4.54 4.71 1.21 7.18 2.48 14.35 4.03 21.46 2.06 9.45 4.74 18.78 6.51 28.28 1 5.4.74 11.03.96 16.56.02.49-.53 1.24-1.01 1.47-5.96 2.81-11.96 5.55-17.96 8.3-.27.12-.59.13-1.02.21 1.89-8.31 1.16-16.43-.03-24.54-.14-.98-.17-2.15-.73-2.85-1.85-2.33-.81-4.23.42-6.32 3.85-6.57 5.05-13.88 3.53-21.1-1.48-7.02-4.56-13.62-9.93-18.86-4.14-4.04-7.84-8.55-12.11-12.43-1.98-1.81-4.84-2.67-7.35-3.85-.35-.16-1.09.27-1.54.59-2.41 1.75-4.82 3.5-7.16 5.35-5.66 4.48-9.98 10.22-13.8 16.17-4.26 6.62-5.93 14.03-3.68 21.98.71 2.52.72 5.22 1.25 7.8.26 1.27.72 2.7 1.57 3.6 2.23 2.36 2.66 4.67 1.33 7.71-.91 2.07-1 4.5-1.47 6.77-1.44 6.88 1.15 13.41 1.7 20.4-2.93-.99-5.81-1.85-8.6-2.93-3.47-1.33-6.83-2.95-10.32-4.23-2.6-.95-3.01-2.74-2.53-5.08 1.41-6.8 3.02-13.57 4.2-20.41 1.51-8.8 2.63-17.66 4.01-26.48.59-3.75 1.39-7.47 2.15-11.19.3-1.46.87-2.85 1.17-4.31.63-3.05-1.04-5.03-4.14-4.97-2.97.06-6.02.63-8.91.15-7.32-1.21-14.66-2.52-21.81-4.46-7.31-1.98-10.7-7.89-12.49-14.79-1.33-5.11.22-10 1.59-14.85.22-.78 1.54-1.18 2.06-1.96 4.52-6.79 11.44-7.82 18.77-7.95 1.38-.02 3.12.58 3.27-1.84.14-2.16-.36-3.81-2.75-4.26-.96-.18-1.95-.19-3.36-.32.36-1.82.62-3.76 1.14-5.62 1.39-4.98 3.34-9.7 6.76-13.69 3.25-3.79 7.16-6.27 12.28-6.74 6.77-.62 13.52-1.39 20.17.73 1.16.37 2.27.92 3.55 1.45-.68 1.44-1.14 2.78-1.88 3.93-1.05 1.63-.79 2.75.62 4.09 2.15 2.04 4.22 4.2 6.01 6.55 3.18 4.15 2.25 11.83-1.91 16.41-2.5 2.76-5.02 5.53-7.83 7.94-2.7 2.32-3.09 5.29-3.45 8.45-.19 1.7-.52 3.43-1.11 5.02-1.35 3.66-4.83 4.77-8.02 4.96-8.47.53-17.07 1.45-25.25-2.41l1.32-11.93c-5.2-.77-9.08 1.31-10.53 5.39-1.26 3.54.49 8.51 4.25 10.4 5.58 2.8 11.35 5.35 17.82 5.18 5.12-.14 10.33.09 15.32-.84 8.08-1.51 12.06-6.67 12.72-14.94.27-3.09.47-6.23 4.15-7.94m-14.91-4.42c1.54-.36 3.11-.34 4.19-1.06 2.83-1.89 5.78-3.49 7.76-6.65 2.7-4.32 2.22-11.72-1.88-14.87-1.59-1.22-3.45-2.35-5.36-2.85-5.22-1.36-10.01.55-14.39 3.08-4.03 2.33-6.2 9.34-4.33 13.02 2.92 5.74 8.26 7.87 14.01 9.33m71.71-11.95c0-7.51-5.35-13.35-12.61-12.95-8.07.44-13.66 3.37-13.52 12.54.1 6.89 6.41 12.47 14.4 12.24 7.76-.23 10.87-4.07 11.73-11.83"/><path d="M89.667 83.34c.71-.83 1.15-1.43 1.68-1.93 5.68-5.27 5.01-12.07 4.28-18.74-.18-1.64-1.65-3.18-2.65-4.69-1.05-1.58-2.1-3.2-3.4-4.56-1.98-2.06-.17-3.81.43-5.42 1.42-3.79.67-6.36-3.32-7.54-3.55-1.04-7.28-2.07-10.92-2.04-6.76.05-13.61.3-20.24 1.51-7.68 1.4-12.61 7.04-16.16 13.65-2.91 5.42-5.18 11.14-4.72 18.02-2.61 0-5.08.22-7.47-.12-.79-.11-1.95-1.64-1.97-2.54-.1-6.61-.01-13.24.13-19.87.03-1.55.32-3.14.82-4.6.19-.56 1.28-1.11 1.98-1.14 3.14-.12 6.3-.14 9.44-.02 2.51.09 3.97-.99 4.89-3.29 1.66-4.14 3.18-8.39 5.38-12.25 1.85-3.23 4.51-6.01 6.93-8.9 1.69-2.02 3.56-3.9 5.4-5.79.56-.58 1.27-1.02 1.97-1.57 1.3 1.82 2.4 3.57 3.73 5.12.65.75 1.68 1.4 2.65 1.62 1.99.45 3.35-.99 2.64-2.91-.85-2.3-2.1-4.45-3.29-6.88 11.16-5.23 23.43-6.83 35.89-8.46-.2 2.84-.39 5.36-.54 7.89-.11 1.84.37 3.36 2.53 3.56 1.88.18 3.4-1.44 3.54-3.63.1-1.65.08-3.33.44-4.93.15-.65 1.24-1.64 1.79-1.57 7.22.92 14.38 1.94 20.98 5.45 4.08 2.17 8.4 3.79 11.45 7.58 1.18 1.47 1.45 2.37-.14 3.61-1.48 1.16-2.81 2.54-4.35 3.96 1.4 1.58 2.52 2.86 3.8 4.3 1.79-1.53 3.4-2.92 5.06-4.34 3.56 1.39 5.37 4.35 6.74 7.56 1.62 3.8 3.02 7.7 4.42 11.58.76 2.11 2.09 2.93 4.33 2.84 3.39-.14 6.8-.14 10.19.03.81.04 2.27.94 2.27 1.46.14 9.31.1 18.63.1 27.95h-22.6c0-1.97.01-4.18 0-6.39-.04-8.11-3.97-13.44-11.37-16.66-6.23-2.71-12.66-3.61-19.19-2.41-6.1 1.12-11.95 3.65-15.58 8.91-1.75 2.53-2.22 6.13-2.68 9.34-.84 5.77-.13 11.23 4.65 15.44 1.65 1.45 1.61 3.13-.05 4.68-2.35 2.2-4.74 4.37-7.02 6.66-1.48 1.48-2.8 1.18-4.04-.12-2.97-3.1-5.86-6.24-8.83-9.41m12.75 51.67c4.04.7 8.1 1.31 12.12 2.12 2.67.54 4.28 2.25 5.6 4.75 3.32 6.31 2.43 12.88.81 19.1-1.07 4.12-3.47 7.98-8.56 9.71-5.84 1.99-11.49 3.86-17.59 2.25-2.46-.65-5.04-1.79-6.92-3.44-4.73-4.16-8.16-9.21-9.18-15.69-1.22-7.75.28-11.27 7.45-16.15 3.44-2.34 7.48-1.39 11.21-2.05 1.61-.29 3.3-.05 4.96-.05.03-.19.07-.37.1-.55m.96 17.03c-.2-2.89-.23-5.47-.66-7.99-.13-.76-1.37-1.34-2.1-2-.65.72-1.81 1.4-1.88 2.17-.46 5.6-.73 11.21-.99 16.82-.08 1.63.8 2.79 2.48 2.82s2.48-1.09 2.58-2.73c.19-3.14.39-6.27.57-9.09m5.25 3.51c-.08 3.72.63 5.12 2.3 5.28 1.97.18 2.97-1.11 3.17-2.79.37-3.03.65-6.09.55-9.13-.03-.94-1.36-2.48-2.21-2.55-.86-.07-2.41 1.17-2.66 2.1-.7 2.61-.9 5.36-1.15 7.09m-16.54-3.69c-.07-1.57.1-2.95-.26-4.19-.33-1.14-1.21-2.13-1.85-3.18-1.04 1.03-2.78 1.95-2.98 3.12-.46 2.72-.4 5.6-.08 8.36.1.91 1.55 2.17 2.53 2.31.68.1 1.98-1.3 2.31-2.27.46-1.35.26-2.92.33-4.15m-42.54-26c4.04.2 7.89.38 12.05.58-3.91 21.04-5.52 42.22-11.03 63.49-3.08-1.76-5.97-3.35-8.79-5.05-1.83-1.11-3.55-2.41-5.35-3.56-2.11-1.35-2.63-2.7-1.5-4.97 6.57-13.19 10.15-27.38 13.84-41.53.37-1.43.62-2.92.76-4.39.12-1.39.02-2.8.02-4.57m116.74 55.06c-4.33 2.26-8.91 4.65-13.85 7.24-4.48-21.52-8.9-42.77-13.37-64.28 4.37.53 8.6 1.01 12.81 1.62.4.06.86.9.97 1.45 2.28 11.5 4.21 23.08 6.87 34.49 1.49 6.37 4.16 12.48 6.57 19.48m17.99-16.41c-3.24 6.1-7.98 10.28-14.26 13.24-4.31-8.07-6.48-16.7-8.21-25.53-1.72-8.75-3.8-17.43-5.79-26.45 2.64 0 5.04-.11 7.4.08.56.05 1.35 1.04 1.5 1.72.93 4.19 1.71 8.42 2.53 12.64 1.61 8.36 6.02 15.13 12.05 20.93 1.34 1.3 3.07 2.19 4.78 3.37m-146.71-41.14c2.78.56 5.42 1.1 8.01 1.62.71 9.93-11.68 46.48-16.2 48.23l-.84 3.83c-3.99-3.72-7.55-7-11.06-10.35-.93-.88-1.07-1.84.3-2.57 8.32-4.4 12.23-12 14.74-20.55 1.65-5.63 3.13-11.31 4.64-16.98.25-.92.25-1.92.41-3.23m79.23 7.85c-11.43-1.14-22.75-2.47-34.08 1.19 3.23-4.81 6.39-9.5 10.98-12.98 1.19-.9 2.43-1.73 3.61-2.63 2.72-2.07 4.21-2.14 6.61.33 4.25 4.39 8.34 8.95 12.48 13.44.22.24.34.55.4.65"/><path d="M61.267 70.06c.62-5.36 8-9.78 12.68-7.38 1.7.87 3.71 1.83 4.67 3.33 3.11 4.88-.74 12.54-6.67 12.73-2.81.09-6.4-.35-8.33-3.26-1.08-1.6-1.59-3.6-2.35-5.42m59-.58c-.91-4.92 5.82-9.12 10.42-9.14 4.86-.02 8.74 5.23 8.57 11.17-.11 3.81-4.92 7.13-10.2 7.03-5.09-.1-8.89-4-8.79-9.06m13.4 1.41c-.07-3.28-2.27-5.95-4.82-5.86-1.65.06-3.36 1.93-3.37 3.68 0 2.43 2.62 5.45 4.7 5.41 2.31-.05 3.53-1.18 3.49-3.23"/></svg>