<svg xmlns="http://www.w3.org/2000/svg" viewBox="0 0 522.029 800"><path d="M522.03 251.298v-38.866H389.997c-8.574-56.204-53.156-100.405-109.55-108.979V78.685c35.627-8.573 61.92-40.2 61.92-77.923V0H310.55v1.524c0 26.673-21.91 48.202-48.964 48.202s-48.964-21.529-48.964-48.202V0H179.09v.762c0 37.723 26.483 69.35 61.92 77.923v24.959c-56.395 8.383-100.977 52.774-109.55 108.978H0v38.676h132.031c3.24 21.72 12.003 41.534 24.578 58.3L32.769 485.639l32.008 22.291 120.22-170.897c16.384 11.812 35.627 19.814 56.584 22.862V800h39.057V360.276c20.958-3.048 40.01-11.24 56.585-22.862l120.22 170.898 32.007-22.292-123.84-176.04c12.575-16.766 21.34-36.771 24.578-58.3H522.03Zm-261.015-116.79c54.108 0 97.928 43.63 97.928 97.357s-43.82 97.356-97.928 97.356c-54.109 0-97.929-43.63-97.929-97.356 0-53.727 43.82-97.357 97.929-97.357"/></svg>