<svg xmlns="http://www.w3.org/2000/svg" xml:space="preserve" viewBox="0 0 980.546 800"><path d="M219.242 352.61c10.284-41.664 17.175-81.632 8.8-114.073l-82.481-6.997c6.36-62.232 40.286-141.426 80.678-224.543C135.49 68.7 52.69 130.612 0 192.95c18.765 67.532 44.951 136.125 92.976 199.947 77.498 25.656 156.48 41.77 236.841 49.086-47.071-29.58-86.51-59.37-110.575-89.372M764.909 0c37.423 80.89 70.288 157.54 73.681 207.05-30.109 15.585-69.653 25.126-114.074 31.593 19.401 47.813 30.215 107.183 36.788 171.959l154.36-47.39c31.593-43.89 56.507-87.781 64.882-131.566C936.231 161.993 856.295 82.586 764.909 0"/><path d="M615.743 261.437c-19.295-3.499-192.95-121.071-192.95-121.071-60.429 29.896-116.618 64.988-168.46 105.274 3.711 37.954.424 67.957-8.799 91.174 24.596 42.089 114.074 94.779 128.068 103.472l-10.496 300.027 64.882-73.682L457.778 800l59.688-164.856 35.092 131.567 24.595-114.074 40.393 80.679 5.3-284.23c14.313-8.058 42.407.424 71.88 10.495l45.587-40.392c-6.997-68.805-17.599-132.52-36.788-184.15 0 .105-68.487 29.896-87.782 26.398M359.608 386.006l-6.997-68.38c38.484 12.403 92.022 11.661 142.062 5.3 0 0 42.088 49.086 42.088 66.684 0 6.997-50.888 45.587-50.888 45.587-55.234-31.274-100.08-50.781-126.265-49.191m192.95 108.773c-7.103-10.178-22.476-13.146-56.19 0 5.62-25.656 13.04-48.556 28.095-59.688h28.095c-9.118 16.963-4.877 38.166 0 59.688m52.69-52.69-52.584-35.092 13.994-17.493L675.43 379.01c-14.207 17.492-41.135 45.587-70.183 63.08"/></svg>