<svg xmlns="http://www.w3.org/2000/svg" xml:space="preserve" viewBox="0 0 1034.49 800"><path d="M456.886 613.704c-23.798 36.33-47.482 72.775-71.625 109.68-20.12-11.727-40.01-23.338-60.359-35.065 1.725-2.185 2.99-3.794 4.369-5.289 31.731-36.1 63.463-72.315 95.31-108.3 2.873-3.22 3.678-5.979 2.643-10.233-3.449-13.566-6.323-27.132-9.657-41.618-24.833 10.462-48.977 20.694-74.04 31.271 2.76 7.588 5.519 14.831 8.048 22.189 1.84 5.059 5.633 10.692 4.484 14.946s-7.358 7.243-11.497 10.577c-5.864 4.944-11.842 9.658-17.82 14.486-.23.23-.69.23-1.84.46 0-2.184-.345-4.139.115-6.093 1.84-8.278-1.38-14.601-6.898-20.695-5.404-5.863-10.002-12.416-15.636-19.43-7.013 14.487-13.681 27.938-19.89 41.62-.69 1.494.345 4.023 1.15 5.748 9.658 19.315 19.545 38.63 29.317 57.944.92 1.84 1.725 3.68 1.725 6.323-31.042-18.05-61.968-36.1-93.355-54.265.805-2.76 1.495-5.288 2.3-7.818 5.748-18.05 11.611-36.1 17.13-54.265 1.264-4.139 3.449-6.668 7.473-8.623 52.77-24.948 105.541-50.126 158.312-75.074 3.449-1.61 4.944-3.335 4.254-7.244-7.013-42.308-13.681-84.617-20.81-126.925-.92-5.289-2.759-10.347-4.598-15.406-.69-2.07-2.185-3.909-4.024-7.128-1.61 4.829-2.99 8.048-3.91 11.497-10.806 39.78-21.613 79.443-32.075 119.223-1.38 5.058-3.565 7.473-8.623 8.852-26.328 7.358-52.54 15.291-78.869 22.879-1.84.575-3.564.92-6.323 1.725 33.916-76.915 56.45-156.703 78.179-237.066-1.495-.69-2.3-1.035-3.22-1.38-6.323-2.07-12.646-4.254-19.66-6.553-.689 2.184-1.264 4.139-1.839 5.978-26.557 88.871-63.692 173.143-111.634 252.587-1.38 2.3-4.14 4.599-6.784 5.403-32.42 9.773-65.072 19.2-97.608 28.628-1.38.46-2.874.69-4.944 1.034.575-1.264.69-1.954 1.15-2.529 31.386-42.194 54.955-88.87 77.144-136.238 27.593-59.21 51.621-119.913 73.58-181.421.46-1.38.92-2.874 1.495-4.829a593 593 0 0 0-8.738-4.254c-2.874-1.38-5.863-2.759-9.312-4.368-1.15 2.529-2.07 4.713-3.105 7.013-30.121 69.44-62.658 137.732-102.437 202.345-14.141 22.994-29.317 45.413-47.827 65.302-6.438 7.013-13.681 13.222-21.04 20.235A25952 25952 0 0 1 0 451.253c1.38-.575 2.414-.805 3.104-1.38 78.984-62.428 135.319-141.756 174.523-233.731 23.798-55.76 40.584-113.59 48.517-173.718.46-3.565 1.724-5.289 5.288-6.094C284.663 24.488 338.01 12.647 391.24.69c1.265-.23 2.644-.345 4.139-.46.92 8.968 2.07 17.705 2.644 26.443.115 1.61-1.724 3.564-2.989 5.058-8.967 10.463-19.085 20.12-26.788 31.387-11.497 17.015-16.67 36.215-12.531 56.91 6.208 30.351 32.421 52.425 61.968 51.39 24.143-.804 41.619-13.106 52.196-34.72 5.173-10.692 1.61-21.27-9.428-25.753-8.047-3.22-16.9-5.404-25.523-5.748-17.245-.69-34.49.115-51.736.23H373.19c0-6.554 2.3-11.497 6.438-14.832 7.473-5.863 15.061-11.956 23.454-16.325 30.812-15.636 64.038-24.259 97.609-31.387 11.726-2.529 23.683-4.828 35.64-5.863 28.972-2.414 49.666 11.152 57.944 38.974 4.024 13.222 5.404 27.363 7.013 41.16 1.15 10.232.575 20.694.69 31.04.23 15.177 11.497 24.72 26.673 22.305 30.927-4.829 55.185-37.48 51.736-69.326-2.644-24.489-14.141-44.493-31.732-60.819-8.852-8.163-13.796-15.98-10.347-28.052 1.035-3.794.805-7.933 1.265-12.302 2.07.345 3.679.46 5.403.92 52.656 11.727 105.197 23.568 157.738 35.065 4.024.92 5.863 2.3 6.553 6.783 16.9 115.2 58.75 220.05 129.685 312.83 26.558 34.721 57.14 65.533 91.285 92.78 1.265 1.035 2.53 2.185 4.254 3.68a18870 18870 0 0 0-43.688 46.907c-1.84-1.265-3.68-2.3-5.059-3.679-11.842-12.762-24.603-24.833-35.18-38.515-28.168-36.56-50.931-76.569-71.396-117.728-21.04-42.308-40.584-85.422-60.703-128.19-.805-1.725-1.61-3.45-2.645-5.863-5.978 2.759-11.727 5.518-17.82 8.392.23 1.38.345 2.53.69 3.564 30.927 85.997 64.612 170.959 108.645 251.322 12.532 22.994 27.708 44.493 41.62 66.682.689 1.035 1.379 2.185 2.529 4.14-2.875-.69-4.944-1.15-6.899-1.725-31.616-9.198-63.232-18.51-94.849-27.593-4.024-1.15-6.553-3.22-8.623-6.783-47.482-79.444-84.617-163.486-110.945-252.242-.46-1.61-1.034-3.219-1.84-5.518-7.472 2.529-14.83 4.943-22.993 7.703 21.73 80.478 44.263 160.151 78.179 236.95-2.07-.46-3.679-.574-5.174-1.034-27.247-7.933-54.38-15.981-81.628-23.799-3.908-1.15-5.518-3.104-6.438-6.783-10.577-40.01-21.384-79.903-32.191-119.798-1.035-3.679-2.414-7.243-5.174-11.267-1.38 2.875-3.449 5.634-4.139 8.738-4.138 18.28-8.622 36.56-11.726 54.955-4.714 27.708-8.163 55.76-12.417 83.583-.69 4.598.575 6.668 4.714 8.622 52.655 24.834 105.196 49.897 157.852 74.73 3.794 1.84 5.978 4.024 7.243 8.048 5.978 19.43 12.187 38.744 18.51 58.06.92 2.988.805 4.713-2.184 6.552-29.547 17.016-58.98 34.261-88.411 51.277-.575.344-1.265.574-3.105 1.264 1.84-3.679 3.105-6.323 4.484-8.967 9.428-18.625 18.855-37.25 28.168-55.875.804-1.725 1.61-4.254.92-5.749-6.209-13.566-12.762-26.902-19.775-41.503-5.289 6.553-9.543 12.876-14.716 18.28-6.669 6.898-9.658 14.37-7.818 23.798.23 1.265 0 2.53 0 5.174-10.807-8.853-20.695-16.786-30.352-25.063-1.035-.805-.805-3.91-.23-5.519 3.794-10.807 7.818-21.5 12.187-33.111-24.604-10.462-48.977-20.694-74.04-31.272-2.645 11.497-4.484 22.764-8.048 33.341-3.45 10.233-.69 17.016 6.323 24.834 30.352 33.57 59.899 67.716 89.79 101.747 1.38 1.61 2.645 3.22 4.6 5.519a50208 50208 0 0 1-60.474 35.18c-23.913-36.56-47.712-73.005-71.51-109.45l-1.035.345c.23 1.494.46 2.989.804 4.483 10.118 40.7 20.235 81.398 30.697 121.982 1.265 4.714 0 6.669-3.909 8.968-27.937 15.98-55.76 32.191-83.467 48.517-2.76 1.61-4.714 1.84-7.703.115-28.053-16.556-56.22-32.881-84.502-49.092-3.91-2.184-4.14-4.369-3.22-8.278 10.348-41.044 20.695-82.087 30.927-123.131.345-1.265.575-2.53.805-3.794-.46-.575-.92-.69-1.265-.805M486.203 70.36c3.794 1.495 5.979 2.76 8.163 2.99 11.727 1.379 23.339 0 34.261-4.485 1.84-.804 3.104-2.989 4.599-4.483-1.84-1.035-3.68-2.76-5.634-3.105-11.727-1.724-23.223-.23-34.26 4.14-2.185.804-3.91 2.644-7.129 4.943"/></svg>