<svg xmlns="http://www.w3.org/2000/svg" xml:space="preserve" viewBox="0 0 950.135 800"><path d="M4.938 595.469c1.418-8.404 2.228-17.01 4.354-25.212 2.228-8.607 5.57-16.91 8.607-25.313.709-1.924 2.126-3.544 4.354-5.164.506 4.252.911 8.404 1.62 12.656.911 5.367 1.62 10.834 3.442 15.897 2.127 6.177 7.088 7.29 11.948 2.835 3.848-3.544 7.493-7.492 10.632-11.644 22.377-28.857 45.766-56.904 73.307-81.104 6.176-5.467 12.657-10.631 18.732-16.099 1.417-1.215 2.835-3.341 2.835-5.062 1.012-38.375 15.998-71.283 39.995-100.24 13.871-16.708 29.262-32.098 43.944-48.096.506.202 1.012.304 1.417.506.405 2.633.506 5.265 1.114 7.898.81 3.746 1.519 7.594 3.139 11.037 1.924 4.455 5.265 5.366 9.416 3.037a56.7 56.7 0 0 0 8.607-5.974c26.832-23.086 49.816-49.411 67.84-79.888 7.087-11.948 13.263-24.402 12.352-39.084-.101-1.519 1.924-3.544 3.443-4.759 27.642-22.782 55.183-45.564 83.027-68.143C472.93 89.81 526.796 46.273 580.764 2.733 582.182 1.62 583.6.507 585.624 0c-4.657 9.72-9.517 19.44-13.972 29.262-9.923 21.87-19.644 43.843-25.01 67.435-2.531 11.036-2.228 21.972 1.316 32.704 5.367 16.2 17.82 23.694 34.629 20.96 13.568-2.127 25.82-7.797 37.767-14.176 37.363-19.947 70.776-45.564 102.975-72.7 15.896-13.466 30.983-27.945 46.475-42.02.607-.607 1.215-1.113 2.835-1.214-1.114 3.543-1.924 7.189-3.443 10.53-10.226 22.478-20.554 44.956-31.085 67.333-20.048 42.324-40.804 84.344-55.486 128.997-5.57 16.909-9.62 34.426-12.556 52.044-1.518 8.809.405 18.428 1.62 27.54.71 5.772 5.063 9.62 10.835 9.822 13.061.506 26.325 1.519 39.286.304 53.158-5.063 105.202-16.91 157.347-28.25 21.77-4.759 43.437-9.72 65.207-14.58 1.721-.405 3.544-.608 5.771 0-1.417 1.215-2.734 2.531-4.252 3.645-40.097 32.704-80.193 65.51-116.948 102.063-10.429 10.328-20.351 21.364-29.262 33.11-11.239 14.782-8.809 23.591 9.012 28.958 17.517 5.265 35.843 8.1 53.866 11.644 9.214 1.823 18.631 2.633 28.047 5.063-1.822.81-3.645 1.72-5.467 2.531-52.652 22.782-107.835 37.767-163.625 50.525-36.249 8.202-72.497 16.504-108.543 25.415-14.176 3.442-27.744 8.91-39.691 17.719-10.43 7.695-15.796 17.82-13.568 30.983.607 3.443 2.227 6.987 4.151 10.024 3.848 5.772 4.151 9.518-1.519 13.467-6.176 4.253-12.758 8.1-19.744 10.834-18.833 7.19-37.767 14.277-56.904 20.352-78.573 25.212-151.779 61.967-224.073 101.152-16.606 9.011-33.11 18.428-49.918 27.034-21.06 10.834-42.324 21.061-63.587 31.49h-6.278c-15.491-5.873-30.274-12.96-41.108-27.035 20.048-6.378 40.4-9.315 57.208-20.351-3.038-4.86-5.57-8.91-8.708-14.075 19.744-1.215 37.565-2.835 52.55-13.669-3.442-3.746-6.379-6.986-9.923-10.834 16.707-2.025 33.515 1.013 45.16-12.859-2.43-2.43-4.456-4.455-7.088-6.986 16.504-5.063 29.06-14.378 41.412-23.896 11.948-9.214 23.592-18.833 35.337-28.25 28.959-23.187 59.335-44.247 93.963-58.321.506-.203.911-.405 1.924-.912-3.443-2.328-6.176-4.354-8.91-6.075-17.922-11.138-37.464-18.124-58.12-22.377-27.135-5.569-50.322 1.722-69.56 21.466-14.986 15.39-24.706 33.92-30.376 54.575-.506 1.823-1.013 3.544-1.924 7.088-6.075-7.392-11.24-13.67-16.403-19.947-4.759-5.873-7.391-5.974-11.745.101-2.127 2.937-4.05 6.177-5.67 9.417-4.76 9.416-9.113 18.934-13.872 28.35-2.532 5.165-5.367 10.126-8.303 15.594-9.315-6.582-7.999-17.618-12.657-27.136-13.77 14.48-17.82 32.907-27.135 49.715-3.038-3.24-5.873-5.974-8.202-9.011-1.62-2.228-2.531-4.962-3.949-7.392-3.24-5.873-7.29-6.784-12.251-2.126-3.038 2.835-6.177 6.075-7.898 9.72-4.455 9.518-8.1 19.34-12.05 29.06-.607 1.519-.91 3.24-1.315 4.86a23 23 0 0 1-1.62.911c-2.532-2.835-5.67-5.265-7.493-8.505-1.924-3.443-2.228-7.695-3.645-11.442-.71-2.025-2.33-3.645-3.443-5.569-1.62 1.52-3.949 2.633-4.658 4.456-5.062 12.859-9.821 25.819-14.681 38.78-.608 1.518-.912 3.138-1.418 4.96-.911-.81-1.316-1.113-1.62-1.417-21.668-28.047-37.261-58.929-44.349-93.76-1.721-8.607-2.835-17.213-4.252-25.92-.102-8.81-.102-17.315-.102-25.719m180.13-147.12c.506.404 1.012.708 1.518 1.113 10.43-8.505 21.06-16.707 30.984-25.718 7.492-6.784 14.276-14.48 20.655-22.276 2.937-3.544 4.86-8.201 5.974-12.656 1.823-7.493-3.847-12.252-10.834-9.012-4.961 2.329-9.821 5.569-13.871 9.315-14.176 13.062-24.504 28.756-31.085 46.88-1.215 3.848-2.126 8.1-3.341 12.353M30.252 597.797c-10.43 5.872-13.872 28.857-6.278 39.893 7.594-12.454 6.683-25.82 6.278-39.893M3.926 546.564c-7.29-10.632-3.949-32.705 6.075-38.375"/></svg>