<svg xmlns="http://www.w3.org/2000/svg" xml:space="preserve" viewBox="0 0 905.759 800"><path d="M853.807 255.457c-8.371 0-16.742-.302-25.112.101-7.766.403-15.33 2.32-21.583 7.362-5.85 4.539-5.95 7.564.101 11.699 6.656 4.64 13.514 8.774 20.372 13.01 39.937 25.011 65.251 60.713 77.958 105.793.202.807.404 1.513-.1 2.723l-3.026-3.63c-13.514-15.834-28.844-29.55-47.098-39.837-7.06-3.933-14.32-7.362-22.994-6.656-.1.706-.302 1.21-.1 1.513 18.052 49.215 28.238 100.145 31.162 152.487.807 13.615.101 27.23-3.63 40.543-2.32 8.27-5.345 13.01-10.59 16.54-2.42-12.304-5.042-24.507-12.606-34.694-7.463-10.186-17.447-17.447-28.138-23.7-6.858 56.477-22.187 109.727-51.434 158.337-.605-.1-1.21-.1-1.815-.201-.605-1.21-1.311-2.42-1.917-3.732-3.126-6.253-5.95-12.808-9.58-18.859-2.017-3.328-4.942-6.455-8.069-8.875-6.152-4.64-9.48-3.429-13.211 3.328-25.616 46.896-54.964 91.27-89.556 131.914-4.438 5.144-9.682 9.682-14.523 14.523-.504-.202-1.009-.303-1.513-.505-.302-3.832-.504-7.765-.907-11.597-.706-9.178-1.21-18.456-2.42-27.533-.909-6.555-3.228-12.909-9.28-16.64-1.411-.908-4.538-1.009-5.546 0-33.382 30.658-74.328 45.685-116.887 57.485-36.912 10.287-74.53 17.346-112.349 23.6-.706.1-1.513 0-2.32 0 .101-.404 0-.606.101-.707 40.341-23.296 69.185-58.191 94.902-95.91 8.068-11.8 14.724-24.406 21.885-36.81 2.017-3.43 3.429-7.262 4.74-11.094 2.118-6.455-2.42-12.102-9.178-11.094-4.034.605-8.27 2.017-11.699 4.236-7.664 4.84-14.825 10.388-22.187 15.632-2.521 1.815-5.043 3.832-8.572 6.555.201-2.622.201-4.034.504-5.345.403-1.412.908-2.925 1.613-4.236 18.759-33.987 28.945-71.1 40.442-107.81 2.925-9.38 6.757-18.557 10.388-28.541 15.934 8.976 29.75 19.363 40.34 33.08 10.489 13.513 19.566 28.036 29.55 42.559 3.126-2.824 6.959-5.85 10.287-9.279 22.893-22.893 39.231-50.224 52.342-79.572.907-2.118 3.025-3.63 4.538-5.446 2.824-3.126 6.253-5.748 8.27-9.278 11.8-20.271 18.86-42.257 21.784-65.453.202-1.613.605-3.328 1.513-4.639 15.127-23.297 19.565-48.207 11.8-75.134-.606-2.22-.908-4.539-1.513-7.766a573 573 0 0 1 5.95 2.42c4.84 1.715 6.858.505 6.757-4.538-.202-19.464.202-39.03-1.11-58.393-1.008-15.733-3.731-31.365-6.757-46.795-1.512-7.564-5.446-14.624-8.471-22.59 35.802-13.616 71.1-30.962 111.038-30.861.201.605.504 1.21.705 1.815-2.622 1.714-5.345 3.328-7.765 5.244-5.547 4.337-11.195 8.673-16.338 13.313-2.118 1.916-3.832 4.74-5.043 7.463-2.723 6.252-.806 10.79 5.85 12.203 8.471 1.815 17.245 2.924 25.818 4.235 25.515 3.934 49.417 12.405 72.008 24.91l2.42 1.514c0 .403-.1 1.008-.201 1.613"/><path d="M647.565 192.627c-11.094-37.114-27.936-71.302-53.754-100.55-1.21-1.411-2.32-3.025-3.429-4.538-1.815 5.648-2.32 10.287-3.126 14.825a147 147 0 0 1-3.026 13.212c-1.21 4.337-2.622 8.572-4.336 14.32C569.102 72.412 529.972 36.71 489.833 0a1731 1731 0 0 1-2.925 10.388c-4.639-2.824-9.177-5.547-14.32-8.674-.101 1.917-.202 2.42-.101 2.925.806 3.933 1.714 7.867 2.622 11.8 7.16 32.777 12.404 65.755 10.488 99.44-.504 8.471-1.815 17.043-3.429 25.414-4.538 23.398-17.85 40.442-38.122 52.544-18.153 10.791-37.617 18.657-57.586 25.314-33.785 11.295-67.772 21.884-101.457 33.382-20.674 7.06-40.744 15.833-58.695 28.54-6.96 4.942-13.212 10.792-19.868 16.238 1.21 1.512 1.614 2.218 2.118 2.823 4.74 6.052 3.63 9.48-3.833 11.498-4.538 1.21-9.278 1.613-13.917 2.32-6.455 1.008-13.313 1.008-19.263 3.226-29.852 11.195-59.805 22.289-89.153 34.693-22.389 9.48-44.072 20.776-65.755 31.668-4.942 2.521-9.177 6.656-13.413 10.488-3.53 3.228-4.538 7.564-1.11 11.195 3.732 3.933 8.17 7.261 12.607 10.287 5.85 4.034 12.606 7.06 18.052 11.699 5.85 4.941 10.791 10.992 15.834 16.842 13.514 15.733 28.541 29.953 46.19 41.046 21.38 13.313 43.366 25.617 65.05 38.425.806.504 1.714.706 3.328 1.31-.706-2.621-1.412-4.437-1.816-6.353-1.31-6.253-3.126-12.404-3.63-18.758-.807-9.884 3.832-13.817 13.514-11.699 5.85 1.311 11.598 3.328 17.447 5.043 5.043 1.512 10.186 2.924 15.935 4.639-.505-2.32-.706-3.53-1.009-4.841-.908-4.135-2.118-8.169-2.521-12.304-.908-8.068 1.815-10.59 9.883-9.077 4.74.908 9.38 2.522 14.019 3.934 6.152 1.916 12.303 4.034 18.254 6.05 0-6.252-.404-11.9.1-17.547.505-6.354 3.53-8.069 9.682-6.052 2.723.908 5.345 2.118 7.968 3.127 4.336 1.714 8.673 3.429 13.11 5.244v-42.055c18.759 27.633 33.584 56.78 63.335 73.924-4.236 1.715-2.622 1.513-9.682 2.017a48.28 48.28 0 0 1-34.894-11.194c-2.118-1.816-4.337-3.732-6.858-5.749-.706 8.976-1.21 17.044-2.118 25.011-1.009 9.279-4.438 12.002-13.514 9.682-8.27-2.017-16.439-4.942-24.608-7.463-1.916-.605-3.832-1.21-6.757-2.219 2.32 3.833 4.034 6.253 5.446 8.976 1.412 2.622 2.925 5.345 3.933 8.17 3.328 9.177-.202 14.22-9.782 12.807-7.766-1.109-15.33-3.53-22.793-5.95-5.547-1.714-10.791-4.337-17.346-6.959 6.757 11.094 9.379 21.885 9.278 33.584 0 1.11 1.815 2.723 3.026 3.227 18.556 7.867 37.012 16.036 55.871 23.095 25.92 9.783 29.146 9.48 53.653-3.731 21.583-11.7 42.761-24.003 64.243-35.803 22.086-12.102 44.375-24.103 69.083-30.255 33.987-8.472 63.537-.706 86.128 26.927 8.874 10.892 15.43 23.6 22.893 35.4.908 1.512 1.714 3.126 2.521 4.638 4.64-7.967 8.875-15.53 13.413-22.994 6.253-10.186 12.91-20.07 19.061-30.255 6.455-10.69 11.195-22.188 13.414-34.592.504-2.925.806-5.85 1.31-9.077 2.522 1.21 4.54 2.219 6.455 3.126.605-.605 1.009-.706 1.11-1.008 10.892-22.994 20.372-46.493 24.002-72.008 0-.202.101-.404.202-.605 2.521-5.85 7.463-11.296 8.472-17.347 2.823-16.136 4.336-32.575 6.151-48.913.202-1.714-.907-3.731-1.916-5.446-3.126-5.244-5.446-10.69-5.345-17.649 3.328 2.622 5.95 4.64 9.581 7.564.706-7.665 1.614-14.12 1.815-20.574 1.715-40.845-3.63-80.782-15.329-119.912m-542.481 210.88c-4.135-6.252.504-13.01 6.454-12.909 4.438 0 7.968 3.631 7.968 7.968-.101 6.454-8.27 11.497-14.422 4.941m37.82 1.11c-8.27 6.05-17.65-3.53-11.397-11.699 8.472-7.06 18.759 3.429 11.396 11.699m-5.547-20.776c-6.052 0-10.287-6.454-6.354-13.01 6.454-6.151 14.522-1.21 14.422 5.144 0 4.337-3.631 7.866-8.068 7.866m24.103 22.692c-6.152-.202-10.69-7.564-5.547-13.817 6.455-5.244 13.918-.201 13.716 5.95 0 4.337-3.832 8.069-8.169 7.867m.202-22.692c-4.438 0-7.968-3.53-7.867-7.967 0-4.437 3.631-7.866 8.068-7.866 4.337 0 7.968 3.731 7.968 7.967-.202 4.437-3.833 7.866-8.17 7.866m117.895-41.147c-.806.807-2.42 1.513-3.429 1.31-11.598-2.42-23.196-5.042-34.894-8.571 26.423-11.8 52.745-23.7 79.168-35.5-13.615 14.22-27.129 28.54-40.845 42.76"/></svg>