<svg xmlns="http://www.w3.org/2000/svg" xml:space="preserve" viewBox="0 0 834.792 800"><path d="m629.315 84.89.968-1.452c-1.743-.484-1.84.194-.968 1.453"/><path d="M834.794 510.472c-3.873-15.203 1.162-31.277-.484-46.868-2.905-27.79-26.532-49.675-31.18-77.272-.581-3.583-.872-7.456.678-10.846 1.55-3.292 5.422-5.81 8.908-4.841 2.421.678 4.164 2.711 5.52 4.745 5.326 7.553 8.424 16.655 9.005 25.95 7.166-15.686 5.713-34.375-1.355-50.062s-19.27-28.566-32.924-39.024c-5.519-4.26-11.426-8.23-15.493-13.847-.968-1.259-15.396-31.374-18.689-42.8-3.582-12.588-3.001-33.02-7.359-40.96.097.097.29.193.484.29 13.363 7.36 24.112 11.136 26.726 12.104 6.875 2.518 16.946 7.94 31.084 20.529-7.36-20.625-19.077-31.18-25.468-39.314-17.333-21.884-48.997-27.791-67.686-48.61-2.42-2.712-4.745-5.81-5.229-9.49s1.453-7.843 4.939-8.909c2.324-.677 4.938.097 7.165 1.066 8.522 3.582 16.075 9.586 21.497 17.139-2.42-17.043-13.653-32.052-27.984-41.541s-31.568-13.944-48.707-15.397c-6.972-.58-14.041-.775-20.53-3.389-3.291-1.356-31.954-15.88-50.255-25.951 2.71-1.937 6.197-2.518 9.586-2.905 21.981-2.808 43.865-5.713 65.847-8.522-15.59-1.743-28.76-12.297-43.963-16.267-27.113-7.166-55.97 7.068-83.373 1.646-3.583-.678-7.262-1.84-9.877-4.455-2.518-2.614-3.583-7.165-1.356-10.07 1.453-1.937 3.97-2.808 6.391-3.39 9.006-2.227 18.69-1.936 27.501.872-12.104-12.2-30.115-17.527-47.254-16.558s-33.602 7.746-48.223 16.849c-5.907 3.68-11.717 7.746-18.399 9.586-4.163 1.065-14.718.968-20.528.194.097-.678.29-1.26.58-1.937 1.647-3.68 5.423-5.713 9.006-7.456C463.246 20.884 483 11.007 502.851 1.13 487.55 4.616 471.67-1 455.984.162c-27.791 2.13-50.45 24.983-78.145 28.856-3.68.58-7.456.678-10.845-.968s-5.81-5.52-4.648-9.006c.775-2.324 2.905-3.97 4.939-5.326 7.746-5.035 16.945-7.843 26.241-8.134-15.396-7.553-34.182-6.681-50.062-.097-15.978 6.585-29.244 18.399-40.09 31.762-4.357 5.422-8.424 11.232-14.234 15.106-5.81 3.97-27.984 10.264-22.755 5.713 2.808-2.518 25.176-37.765 18.398-35.828-22.272 18.398-45.705 26.435-56.55 49.481-2.518 5.423-5.423 12.782-11.427 12.589-6.39-.097-8.618-8.715-8.23-15.203C209.833 44.51 219.807 20.4 236.172 2c-24.79 21.013-44.64 35.054-53.162 80.178-2.033 6.488-3.873 13.266-8.037 18.592-5.229 6.585-13.363 9.974-19.85 15.397-12.589 10.554-17.721 27.79-29.535 39.12-1.84 1.84-3.873 3.39-5.906 4.939-9.587 7.068-16.172 12.007-17.72 13.169-20.045 15.88-8.425 55.582-8.522 55.001 3.776-1.065 23.53-39.798 50.644-43.284 5.035-.581 7.843-2.227 10.167-.969 4.551 2.421 5.326 9.684 5.229 12.88-.581 20.818-8.618 41.347-22.272 57.034 9.2 1.646 19.948 2.905 26.823-3.486 3.292-3.099 4.939-7.36 6.875-11.426 8.812-18.98 23.337-35.15 41.251-45.9 5.81-3.485 12.782-7.552 13.073-14.33.193-3.68-1.84-7.166-2.421-10.846-1.743-11.039 9.78-20.044 20.819-21.4 10.942-1.356 21.98 2.227 33.117 2.518s24.014-4.164 27.21-14.816c.774-2.614 1.355-5.713 2.517-8.134s11.04-3.873 13.557-2.905c-6.585-6.875-25.08 1.26-34.666 1.162-1.55 0-3.099-.29-4.358-1.162-2.711-1.936-2.808-6.294-.871-9.102s5.132-4.358 8.328-5.52c15.783-5.616 33.794-4.648 48.707 2.809 6.487 3.195 12.491 7.65 19.366 9.973 13.557 4.648 29.825 0 38.927-11.039-4.551.291-9.393.485-13.17-2.033-3.679-2.518-5.131-8.812-1.452-11.426 2.227-1.55 5.326-1.162 8.037-.678 14.719 2.711 30.115 5.616 41.929 14.815 6.681 5.23 11.717 12.395 18.495 17.43 17.527 13.17 29.534 17.914 51.322 15.494-21.691-9.587-35.538-26.34-44.737-47.642 9.102 3.098 17.527 8.327 24.305 15.202 5.035 5.23 9.296 11.33 15.009 15.784 11.33 8.909 28.178 9.877 40.476 2.421-4.357-1.162-9.005-2.614-11.717-6.197s-2.033-9.974 2.324-11.233c2.712-.678 5.423.678 7.844 2.034 13.072 7.359 7.262 15.106 15.396 27.694 4.551 7.069 7.166 15.396 11.91 22.368 12.202 18.108 35.442 24.596 56.842 29.437-19.367-18.01-40.186-38.926-40.67-65.362 0-1.646.484-3.389 1.356-5.035 15.977 11.814 44.446 33.891 46.48 48.513.968 7.263.677 14.622 2.614 21.69 3.776 13.848 16.655 24.79 30.986 26.146-2.808-3.583-5.713-7.456-5.713-12.008s4.358-9.199 8.618-7.65c2.518.969 3.874 3.777 5.036 6.295 6.003 13.653 12.2 28.081 11.232 42.994-.484 8.424-3.389 16.655-3.776 25.08-1.065 21.884 13.653 40.96 27.888 57.615-4.842-25.951-8.909-55.195 6.488-76.692l.193-.193c7.65 13.556 11.233 25.757 12.976 34.182 2.518 11.813 7.553 35.44-2.421 58.68-4.454 10.265-6.875 11.524-9.393 19.658-4.26 13.75.872 29.824 12.201 38.636-.484-4.454-.774-9.296 1.55-13.17s8.618-5.422 11.329-1.84c1.646 2.228 1.259 5.327.871 8.038-2.227 14.719-4.648 30.212-13.46 42.316-4.938 6.875-11.716 12.298-16.558 19.173-12.588 17.914-10.36 41.929-7.262 63.62 9.586-23.822 21.303-49.967 44.543-60.521-2.711 15.59-7.844 27.403-11.717 35.053-5.326 10.168-14.525 27.791-33.31 38.83-10.168 6.004-12.88 5.035-19.851 9.974-11.91 8.424-17.72 24.596-13.847 38.733 2.42-3.873 5.132-7.94 9.393-9.586 4.26-1.55 10.36 1.065 10.36 5.616 0 2.808-2.13 5.035-4.163 6.972-10.942 10.555-12.879 2.033-27.5 6.294-8.328 2.42-17.14 2.518-25.371 5.035-21.303 6.488-34.279 27.307-45.124 46.674 23.143-13.557 49.772-27.694 75.82-20.335.29.097.581.194.775.29-17.14 15.203-40.186 39.702-52 35.054-6.778-2.614-13.169-6.488-20.238-8.23-13.944-3.39-29.727 2.614-37.861 14.427 4.454-.774 9.296-1.355 13.266.775s6.003 8.328 2.517 11.233c-2.13 1.743-5.229 1.646-7.94 1.355-14.912-1.355-61.295-2.905-68.46-7.359-23.24-2.905-27.501 11.717-48.998 16.365 14.815 4.938 30.502 10.651 43.284 19.56-3.97.968-10.458 2.42-18.495 3.292-16.074 1.84-37.28 4.261-55.582-6.584-9.393-5.52-8.425-8.134-16.656-12.88-12.2-7.068-28.856-7.455-39.992-.87 4.455.87 9.2 1.936 12.298 4.841 3.196 2.905 3.196 8.328-.871 9.49-2.518.678-5.423-.388-7.94-1.453-13.75-5.81-27.985-12.007-37.572-22.368-5.326-5.81-8.908-12.588-14.428-18.398-14.234-14.913-37.862-19.754-59.455-23.24 19.463 13.363 40.476 28.759 46.576 48.32-5.422-1.55-13.266-4.261-21.98-8.813-13.073-6.778-31.375-16.364-38.347-34.763-3.873-10.07-1.258-12.588-4.454-21.4-4.938-13.46-18.786-23.24-33.117-23.336 3.002 3.292 6.294 6.972 6.682 11.426s-3.583 9.586-7.94 8.328c-2.712-.775-4.261-3.39-5.617-5.81-7.166-13.073-14.622-26.823-14.912-41.832-.194-8.425 1.936-16.85 1.646-25.274-.872-21.884-17.236-39.604-32.826-55 6.875 24.692 13.266 52.483 1.355 74.948-12.104-22.562-34.376-58.778-30.309-69.526 2.324-6.1 5.423-11.62 7.07-18.011 3.292-12.588.096-27.598-7.747-36.119.193 4.164.29 8.715-1.453 12.201s-6.197 4.745-8.037 1.356c-1.162-2.13-.872-4.939-.484-7.456 1.84-13.654 3.97-27.888 10.458-38.83 3.583-6.198 8.521-10.943 12.104-17.237 9.296-16.268 8.328-38.636 6.585-58.777-7.457 22.465-16.656 47.06-34.182 55.485-.872.387-1.647.775-2.518 1.065 10.942-20.625.194-33.698 12.685-57.615 6.197-12.008 9.974-10.749 14.815-22.95 7.36-18.301 0-43.284 0-43.284s-7.746 26.435-20.625 21.012c-12.879-5.519 3.583-23.53 13.266-30.696s24.208-49.772 23.24-50.353c-1.646-1.065-5.52 18.108-21.981 23.918-10.264 3.68-31.374 20.238-39.024 39.024-5.907 14.525.29 18.204-1.936 60.714-.678 12.976-2.13 39.314-6.779 39.702-3.292.29-3.873-11.62-9.393-22.95s-.29-22.562-.29-22.562-14.04 9.2-15.784 22.562c-1.743 13.46 7.456 17.043 13.266 39.411 2.13 8.134 2.615 14.331 2.905 18.883-2.13-1.162-4.648-2.324-6.778-3.68-11.62-7.263-20.625-17.14-23.53-36.119 2.227 14.235-6.488 14.525 0 30.018 9.973 23.918 23.53 37.959 26.144 63.62.388 3.389.485 6.972-.677 10.07s-3.874 5.326-6.391 4.261c-1.646-.678-2.808-2.614-3.777-4.551-3.583-7.263-5.52-15.784-5.713-24.402-5.423 14.331-4.842 31.761-.194 46.48C40.28 508.825 48.608 521.22 58 531.29c2.033 2.13 4.164 4.454 6.488 7.456 2.324 2.905 3.776 5.229 4.164 5.81 6.875 10.458 27.016 24.208 25.467 28.662-.969 2.712-44.156-8.908-46.964-17.914 5.81 18.883 26.145 26.63 45.608 38.54 9.296 5.713 13.072 22.078 9.586 25.37-2.324 2.13-8.23-.678-21.303-7.747a1282 1282 0 0 1-41.154-23.143c3.099 8.134 8.715 19.27 19.173 29.147 3.099 2.905 6.004 5.229 9.683 7.844 22.078 15.396 57.326 28.759 71.657 42.51 2.614 2.517 5.229 5.422 6.003 9.005.872 3.582-.677 7.94-4.066 9.296-2.324.871-4.939.29-7.263-.485-8.812-2.808-16.849-8.133-22.853-15.202 3.874 16.849 16.365 30.793 31.471 39.023s32.633 11.136 49.87 11.136c9.101 0 6.777.29 20.721 1.55 45.802 4.066 62.942 10.748 70.108 13.847 6.003 2.614 10.748 5.229 13.653 6.875-3.002.968-6.004 2.42-9.2 2.808-21.206 3.002-42.412 5.907-63.618 8.909 15.59 1.065 29.824 9.49 45.22 12.491 27.501 5.326 54.13-7.456 81.728-3.583 3.582.484 7.359 1.356 10.264 3.486s4.454 5.907 2.614 8.425c-1.162 1.743-3.486 2.517-5.81 3.098-8.618 2.13-18.107 2.13-27.113 0 13.46 9.877 31.761 13.847 48.514 12.589s32.051-7.36 45.317-15.397c9.296-5.616 9.2-5.326 16.946-8.521 15.88-6.488 30.018-8.521 40.476-9.974 5.23-.678 12.201-1.452 20.723-1.84a96.9 96.9 0 0 1-17.334 22.175c-14.428 13.75-29.92 19.754-38.926 22.465 14.912-4.841 31.277-.678 46.77-3.292 27.597-4.648 31.374-42.316 79.21-48.32 3.582-.484 7.359-1.355 10.845 0s6.197 5.036 5.422 8.618c-.58 2.324-2.517 4.164-4.454 5.714-7.36 5.713-16.268 9.392-25.467 10.458 16.074 6.1 34.57 3.582 49.869-4.358s27.5-20.82 37.087-35.15c4.357-6.585 6.1-8.328 12.879-16.365 10.748-12.782 15.687-16.559 22.852-24.983 5.423-6.391 12.685-15.977 19.657-29.437.29 2.517 1.162 6.39.485 10.942-3.486 22.271-6.876 44.446-10.362 66.718 6.1-14.719 20.239-24.499 28.47-38.056 14.718-24.208 9.005-56.647 22.174-81.727 1.743-3.292 3.97-6.584 7.263-8.327s8.037-1.356 10.264 1.646c1.55 2.033 1.646 4.745 1.55 7.262-.388 9.49-3.487 18.69-8.716 26.533 15.494-8.134 25.758-24.112 29.728-41.154s1.937-35.054-2.808-52c-3.39-12.2-4.26-13.556-4.164-20.819.097-16.752 9.005-25.273 15.88-40.573 4.358-9.683 9.006-24.595 8.425-45.996.678 1.066 1.743 2.615 2.808 4.648a17172 17172 0 0 0 31.277 58.488"/><path d="m783.28 511.343 1.742.387c-.194-1.84-.871-1.743-1.743-.387M681.314 708.108l.871 1.55c1.162-1.357.678-1.744-.871-1.55M465.764 766.885l.387 1.453c1.453-.678 1.065-1.162-.387-1.453M233.752 734.64l-.775 1.55c1.743.29 1.743-.388.775-1.55M4.935 375.68c-19.947 43.769 27.017 52.87 27.017 52.87-19.85-13.168-24.693-38.055-27.017-52.87"/></svg>