<svg xmlns="http://www.w3.org/2000/svg" viewBox="0 0 344.854 211.667"><path d="m84.349 210.58-3.289-.78 1.43-1.288c2.085-1.879 1.914-5.332-.352-7.115-2.41-1.895-4.71-1.762-6.702.388-1.8 1.94-2.07 3.617-.927 5.75.402.752.609 1.488.46 1.637-.605.605-15.858-3.289-16.878-4.308-.363-.363.09-1.068 1.115-1.74 2.225-1.458 2.434-5.658.375-7.521-3.196-2.893-8.386-.392-8.386 4.04 0 1.31-.254 2.381-.564 2.381-.88 0-7.242-3.326-11.223-5.867l-3.606-2.301 1.746-1.374c2.637-2.074 2.447-5.603-.394-7.33-1.922-1.17-2.33-1.204-4.008-.336-1.028.531-2.063 1.578-2.3 2.326-.715 2.253-2.06 1.581-6.415-3.204C9.79 167.848 1.388 146.121.311 121.564l-.31-7.099 3.649 7.437c5.582 11.376 11.004 19.03 19.407 27.395 12.088 12.034 27.268 19.695 39.36 19.863 5.715.079 7.513-.739 6.202-2.82-.403-.641-1.613-1.324-2.69-1.518l-1.955-.352.061-5.057c.047-3.88.458-5.922 1.766-8.775 3.24-7.066 11.2-14.199 15.845-14.199 2.896 0 3.317.86.936 1.914-2.39 1.058-3.973 4.316-4.857 9.996-2.047 13.147 6.258 20.545 23.063 20.545 8.073 0 12.442-1.092 14.917-3.727 1.268-1.35 1.464-2.124 1.142-4.522-.86-6.415-7.411-7.196-8.94-1.066-.442 1.768-.534 1.803-2.321.878-2.526-1.306-8.325-7.75-9.844-10.94-2.765-5.808-3.77-9.628-4.164-15.83-.37-5.85.127-13.352.84-12.64.155.155.576 1.834.936 3.73.95 5.006 3.13 9.19 6.484 12.44 3.67 3.557 6.39 4.899 12.128 5.981 8.207 1.549 17.04-.744 22.752-5.905 5.488-4.958 9.04-15.721 7.454-22.59-1.029-4.458-1.76-5.309-4.559-5.309-1.595 0-2.48.413-3.01 1.403-.81 1.512-.28 6.442.762 7.085 2.22 1.372-1.41 2.763-9.647 3.696-10.51 1.19-22.265-1.017-32.245-6.055-4.274-2.157-10.395-7.539-9.075-7.979.402-.134 3.172.38 6.155 1.141 18.08 4.617 30.871-2.054 34.022-17.743 1.038-5.165.32-9.143-2.199-12.2-2.535-3.074-5.116-4.467-10.397-5.61-10.49-2.27-20.315-.139-25.245 5.476-2.605 2.967-3.153 4.826-3.149 10.671.002 2.51-.216 4.564-.483 4.564-.268 0-1.791-.43-3.385-.955s-6.52-2.084-10.949-3.463c-8.172-2.545-8.615-3.019-3.78-4.04 2.87-.606 6.085-2.771 6.085-4.096 0-.654-.76-.969-2.343-.969-1.656 0-3.043-.614-4.733-2.098-2.792-2.452-3-3.31-.8-3.31 2.384 0 5.994-1.366 7.707-2.917 2.995-2.71 1.407-11.856-2.548-14.672-1.492-1.063-2.925-1.333-6.853-1.292-8.458.088-12.569 2.749-11.025 7.137.576 1.639 1.184 1.967 4.876 2.635 2.32.42 4.4.945 4.623 1.167.702.702-3.907 2.697-9.864 4.269-9.71 2.562-10.6 3.11-9.857 6.069.444 1.77 3.503 3.629 8.355 5.078 1.59.475 2.788 1.175 2.662 1.555-.72 2.16-13.763 3.09-21.807 1.556-6.817-1.3-16.54-4.518-16.54-5.473 0-.727 4.572-13.516 6.057-16.945.322-.744 2.457-6.373 4.744-12.508 5.228-14.027 5.532-14.733 5.909-13.692.561 1.551 2.78.884 3.789-1.14 1.273-2.551 9.627-13.583 13.602-17.96 2.726-3.003 3.15-3.25 3.787-2.198.998 1.643 1.868 1.51 7.17-1.1 7.976-3.924 12.703-5.847 31.38-12.762l4.431-1.64-.272 1.855-.272 1.854 12.407-.104c14.761-.125 22.886.579 22.886 1.981 0 .527-.409.957-.909.957s-1.432.578-2.071 1.284c-1.105 1.22-1.086 1.337.383 2.366.85.596 1.9 1.083 2.331 1.083 1.126 0 13.282 5.096 18.86 7.907 7.898 3.978 16.565 10.802 16.565 13.04 0 .309-1.868.391-4.152.184-6.96-.63-9.923 1.785-10.54 8.595-.303 3.334-.141 4.053 1.28 5.705 2.306 2.681 6.892 3.174 9.606 1.033 2.136-1.686 3.806-5.06 3.806-7.69 0-2.512 3.336-4.05 8.79-4.05s8.79 1.538 8.79 4.05c0 6.788 6.754 11.167 12.231 7.932 4.952-2.926 2.61-14.034-3.27-15.51-.904-.227-3.29-.243-5.303-.035s-3.658.106-3.658-.226c0-2.152 11.025-10.724 17.58-13.669a3545 3545 0 0 0 6.76-3.052c2.418-1.093 6.373-2.667 8.79-3.497 5.756-1.976 6.458-2.566 4.983-4.195-.624-.69-1.545-1.255-2.045-1.255s-.91-.43-.91-.954c0-1.358 9.12-2.118 23.572-1.963l11.74.127-.384-1.916L250.986 0l4.533 1.68c19.056 7.062 23.895 9.026 31.5 12.784 5.319 2.628 6.156 2.759 7.153 1.117.638-1.051 1.062-.806 3.802 2.197 3.97 4.353 11.936 14.912 13.388 17.749 1.138 2.222 3.396 2.988 3.988 1.352.395-1.093.85-.023 7.112 16.734 2.223 5.95 5.34 14.258 6.928 18.462 2.474 6.551 2.75 7.774 1.933 8.56-2.368 2.28-18.035 5.789-25.632 5.741-4.95-.031-11.629-1.389-11.978-2.435-.126-.38 1.072-1.075 2.662-1.546 4.377-1.293 7.962-3.523 8.387-5.215.707-2.817-.266-3.402-9.889-5.941-5.957-1.572-10.566-3.567-9.864-4.269.223-.222 2.303-.747 4.623-1.167 3.692-.668 4.3-.996 4.876-2.635 1.544-4.388-2.567-7.05-11.025-7.137-3.928-.04-5.36.23-6.853 1.292-2.386 1.7-4.07 5.855-4.07 10.047 0 4.02 1.588 5.739 6.424 6.956 1.86.468 3.624 1.05 3.922 1.294.298.243-.549 1.4-1.883 2.572-1.721 1.511-3.103 2.128-4.767 2.128-4.468 0-1.76 3.403 4.054 5.093 2.06.599 3.745 1.197 3.745 1.33 0 .134-3.575 1.355-7.945 2.716-4.37 1.36-9.248 2.904-10.841 3.429-1.594.525-3.12.955-3.39.955s-.503-2.358-.517-5.24c-.026-5.738-.904-8.094-4.123-11.074-3.756-3.476-9.478-5.316-16.457-5.29-14.759.054-22.4 6.688-20.497 17.796 1.427 8.332 5.612 14.447 12.143 17.743 3.667 1.85 4.306 1.95 12.03 1.88 6.281-.056 9.05-.385 12.044-1.43 2.794-.975 3.888-1.123 3.888-.525 0 4.696-16.56 12.555-29.298 13.905-10.57 1.12-25.203-1.42-21.47-3.726 1.04-.643 1.57-5.573.762-7.085-.874-1.632-4.806-1.964-6.015-.507-1.729 2.083-2.401 7.756-1.478 12.476 2.295 11.74 8.929 18.375 20.5 20.507 5.08.936 12.096.065 16.42-2.038 5.766-2.804 10.475-9.36 11.821-16.457.831-4.381 1.12-4.632 1.71-1.484.704 3.75-.188 16.398-1.404 19.907-2.52 7.273-8.116 14.97-12.555 17.265-1.828.946-1.89.918-2.321-1.047-.469-2.132-2.583-4.048-4.469-4.048-2.129 0-4.052 2.277-4.454 5.274-.48 3.582 1.16 5.636 5.75 7.2 3.964 1.35 16.19 1.403 20.416.087 10.309-3.21 14.718-9.976 12.97-19.903-.996-5.648-2.668-8.942-4.984-9.816-2.659-1.004-2.367-1.774.671-1.774 5.035 0 12.487 6.464 16.013 13.89 1.358 2.86 2.005 5.445 2.232 8.917.34 5.217.442 5.042-3.406 5.885-2.523.553-2.523 2.864 0 3.84 2.587 1 10.056.17 16.039-1.783 18.832-6.147 36.69-23.123 47.338-45 1.671-3.434 3.228-6.425 3.46-6.646.595-.567-.135 12.19-1.022 17.855-1.516 9.688-4.974 21.288-8.814 29.57-4.006 8.64-16.744 25.535-19.252 25.535-.469 0-1.195-.753-1.614-1.672-.976-2.143-3.874-2.905-6.17-1.623-2.561 1.431-2.78 5.346-.404 7.216l1.744 1.371-1.876 1.326c-3.234 2.285-12.14 6.904-13.312 6.904-.899 0-.982-.26-.421-1.308.81-1.514.06-4.02-1.62-5.414-1.505-1.25-4.97-1.058-6.538.36-1.798 1.628-1.756 6.056.068 7.195 2.058 1.285 1.627 2.422-1.208 3.185-7.647 2.06-13.857 3.454-14.136 3.176-.174-.174.013-.931.414-1.682 1.189-2.22.847-4.117-1.058-5.882-2.186-2.027-4.22-2.106-6.571-.257-2.245 1.766-2.436 5.234-.39 7.085l1.39 1.26-1.56.626c-.858.344-5.94.777-11.295.962l-9.735.336 1.115-1.59c2.661-3.8.208-8.728-4.344-8.728-4.161 0-7.165 4.065-5.418 7.33 1.24 2.316.921 2.771-1.459 2.089-1.206-.346-3.139-.63-4.295-.63-2.262 0-15.426-3.142-17.296-4.129-1.002-.528-.903-.829.845-2.577 2.66-2.66 2.66-5.562.003-8.22-2.685-2.685-5.558-2.66-8.29.071-1.67 1.67-1.997 2.482-1.774 4.395.151 1.291.105 2.347-.102 2.347-.756 0-7.182-3.637-11.16-6.316-2.245-1.512-6.469-5.114-9.387-8.005l-5.307-5.255 2.405-2.81c5.92-6.916 2.597-16.863-5.31-15.893-6.7.822-8.514 9.792-3.23 15.966l2.426 2.833-5.73 5.566c-5.163 5.014-15.59 12.334-19.2 13.48-1.243.395-1.355.2-1.109-1.91.224-1.916-.103-2.727-1.774-4.398-2.73-2.73-5.605-2.756-8.289-.071-2.658 2.658-2.657 5.56.003 8.22 1.743 1.743 1.844 2.048.845 2.557-3.735 1.904-23.784 5.835-23.784 4.664 0-.332.33-1.22.733-1.974 2.77-5.175-5.813-10.202-9.474-5.548-1.644 2.09-1.763 3.931-.423 6.5l.97 1.86-7.904-.065c-4.348-.036-9.385-.416-11.194-.845zM44.116 44.086c4.23-2.15 7.053-8.444 4.268-9.513-2.239-.86-7.697 5.023-8.796 9.48-.444 1.801-.366 1.9 1.136 1.436.888-.275 2.414-.906 3.392-1.403m261.547.906c-.065-1.97-3.2-6.997-5.512-8.836-2.952-2.35-4.602-2.056-4.602.819 0 2.585 2.868 5.99 6.395 7.592 3.26 1.48 3.756 1.537 3.72.425"/></svg>