<svg xmlns="http://www.w3.org/2000/svg" xml:space="preserve" viewBox="0 0 798.138 800"><path d="M0 189.758V0h352.915c.177 1.419.443 2.926.443 4.345 0 54.356 0 108.712.09 163.157 0 3.28-1.154 4.433-4.168 5.32-79.185 22.966-130.792 74.307-149.058 154.378-18.444 80.692 5.231 150.388 68.455 204.39 46.375 39.636 100.82 56.218 161.738 46.198C542.319 559.344 617.6 455.42 601.375 342.806 589.67 261.406 528.928 193.483 449.301 173c-3.902-.975-4.611-2.749-4.611-6.295.088-53.824.088-107.56.088-161.384 0-1.773.266-3.547.444-5.231h352.915v189.758c-49.036 0-98.071-.089-147.107-.089-.532 0-.976.355-1.33.444 8.867 9.842 18 19.064 26.158 29.173 72.09 89.293 96.83 190.556 73.332 302.638-31.213 148.703-153.314 258.48-307.25 275.416-8.6.975-17.29 1.684-25.98 2.571h-33.695c-1.42-.266-2.838-.62-4.345-.71-21.548-1.24-42.918-4.167-63.933-9.044C133.274 748.393 19.951 580.093 43.981 397.43c10.464-79.451 45.579-147.11 101.973-203.86.976-.975 1.862-2.04 3.37-3.724H92.219c-30.77-.177-61.538-.089-92.219-.089"/></svg>