<svg xmlns="http://www.w3.org/2000/svg" xml:space="preserve" viewBox="0 0 588.308 800"><path d="M586.974 184c.308-1.641.923-3.18 1.334-4.718v-1.538c-22.564 6.564-44.923 13.333-67.59 19.384-13.744 3.693-27.795 6.257-41.641 9.334-.718.205-1.436.205-3.282.512 13.23-17.538 25.949-34.256 38.564-51.077a3.1 3.1 0 0 1-.513-.718c-36 17.231-71.897 34.462-107.897 51.59l-.616-.615c.718-1.128 1.436-2.257 2.154-3.282C452 137.23 496.615 71.487 541.128 5.846 542.36 4 543.385 1.95 544.615 0h-204c-.512 1.026-.923 2.051-1.538 3.077-43.18 71.385-86.36 142.77-129.436 214.256-1.744 2.872-3.487 3.795-6.77 3.282-17.127-2.359-34.358-4.205-51.486-6.769-50.667-7.795-100.513-18.872-149.026-35.384-.615-.206-1.333-.308-2.256-.513.102.923.102 1.333.205 1.846 9.436 49.846 18.974 99.692 28.41 149.538.41 2.052.41 4.41.103 6.462-7.385 39.384-14.975 78.77-22.462 118.256C4.308 465.128 2.154 476.103 0 487.795c29.641-10.257 59.282-18.051 89.333-24.616 30.052-6.564 60.41-11.897 91.795-15.692-14.769 28.41-29.025 55.898-43.282 83.385.205.205.513.307.718.513 29.949-14.052 59.898-28.206 89.846-42.257.205.205.41.41.616.718C174.154 593.231 119.385 696.616 64.616 800c1.64-.718 2.666-1.846 3.59-2.974C164.82 680 261.537 562.974 358.153 445.949c1.846-2.257 3.692-3.282 6.77-2.975 58.768 5.026 116.717 14.564 173.64 29.847 16.718 4.512 33.128 9.846 49.744 14.871v-1.538c-1.744-8.513-3.693-16.923-5.334-25.539-7.897-41.333-15.795-82.769-23.59-124.205a23.6 23.6 0 0 1 0-7.59c9.231-48.205 18.36-96.512 27.59-144.82M262.77 290.154c-21.743 41.846-43.487 83.692-65.128 125.538-1.23 2.462-2.77 3.487-5.538 3.795-51.385 5.641-102.257 14.051-152.513 26.462-.718.205-1.539.205-2.77.41.308-2.462.616-4.718.924-6.872 5.435-33.846 10.871-67.795 16.512-101.64 1.334-8.411-1.23-16.309-2.461-24.309-4.718-30.461-9.744-61.025-14.667-91.487-.102-.718-.102-1.538-.205-2.256 25.846 5.128 51.385 10.77 77.128 15.18 25.744 4.512 51.59 7.794 77.846 11.794-10.256 16.923-20.512 33.949-30.769 50.872-10.256 17.026-20.513 33.949-30.256 51.692 44.82-21.948 89.64-44 134.564-65.948l.615.615c-1.128 1.949-2.256 4.103-3.282 6.154m273.641 62.359c4.718 30.359 9.744 60.718 14.667 91.077.102.718.102 1.436.205 2.872-55.897-13.641-112.103-22.872-169.949-28.513 27.898-33.744 55.18-66.872 82.564-100-.205-.205-.307-.513-.512-.718-34.667 15.077-69.436 30.154-105.026 45.64.923-1.538 1.23-2.358 1.846-3.076 29.846-39.59 59.795-79.18 89.744-118.667 1.128-1.436 3.18-2.564 4.923-2.974a15179 15179 0 0 1 93.846-18.77 45 45 0 0 1 2.564-.307c-.205 1.538-.308 2.77-.513 4-5.64 34.872-11.282 69.846-16.923 104.718-1.333 8.615 1.333 16.615 2.564 24.718"/></svg>