<svg xmlns="http://www.w3.org/2000/svg" xml:space="preserve" viewBox="0 0 800 800"><path d="M730.826 441.651C754.22 431.743 800 409.633 800 409.633l-68.165-25.321a331.8 331.8 0 0 0-13.12-73.12c17.065-17.614 52.57-58.44 52.57-58.44l-74.22 3.762c-10.643-21.193-23.395-41.101-38.074-59.45C667.706 176.606 687.615 120 687.615 120l-71.285 32.752c-17.523-15.137-36.605-28.532-56.972-39.816.642-23.486-1.285-80.459-1.285-80.459L503.761 88.44c-23.578-7.89-48.348-13.302-73.944-15.78C420.734 50.827 396.33 0 396.33 0l-26.789 72.202a330.5 330.5 0 0 0-74.128 14.495c-18.349-17.614-56.697-50.917-56.697-50.917l3.67 72.844c-24.955 12.936-47.982 28.899-68.808 47.34-24.954-9.542-60.459-22.019-60.459-22.019l26.239 57.248c-15.597 18.624-29.266 38.899-40.55 60.642-26.514-.092-71.285 1.376-71.285 1.376l50.183 48.716c-8.899 27.156-14.403 55.78-16.146 85.412C37.064 398.165 0 416.055 0 416.055l62.569 23.211c2.844 30.092 9.725 58.99 20 86.239-18.165 19.633-43.762 48.99-43.762 48.99l65.046-3.302a333.4 333.4 0 0 0 43.762 60.825c-9.45 24.771-21.193 58.349-21.193 58.349l55.413-25.413c17.798 14.863 37.248 27.89 57.89 38.9.183 26.605 1.376 63.394 1.376 63.394l42.66-43.945a331.6 331.6 0 0 0 91.927 18.807c10.918 24.22 27.064 57.89 27.064 57.89l21.652-58.44a331 331 0 0 0 85.504-18.44c19.633 18.164 50.55 45.137 50.55 45.137l-3.394-66.239a331.5 331.5 0 0 0 51.468-34.495c22.018 9.174 74.863 27.615 74.863 27.615l-31.927-69.45c14.312-16.697 27.064-34.77 37.982-54.128 26.33.183 72.66-1.377 72.66-1.377l-49.725-48.256c9.266-25.505 15.505-52.386 18.44-80.276M555.229 671.56l-35.963-102.753-37.706 89.633c-1.193 2.936-5.413 2.753-6.422-.275l-16.422-50.826-20.46 54.312c-1.008 2.66-4.953 2.477-5.595-.367l-12.478-53.945-19.082 50.092c-.918 2.294-4.129 2.294-5.046 0l-18.99-50.092-12.478 53.945c-.642 2.844-4.587 3.028-5.596.367l-20.459-54.312-16.422 50.826c-1.01 3.028-5.23 3.211-6.422.275l-37.706-89.633-36.147 103.211C151.468 618.44 90.825 520 90.825 407.34c0-74.22 26.331-142.293 70.092-195.32l3.303 1.742s50.459 132.11 53.211 116.514c2.386-13.486 46.514-126.238 58.532-156.697.918-2.385 4.312-2.11 4.954.275 5.689 22.202 22.294 83.303 28.257 72.019 6.147-11.56 23.303-59.909 28.624-75.23.55-1.56 2.752-1.56 3.395 0 6.513 17.34 29.45 77.615 29.45 75.23 0-1.652 15.87-48.257 28.715-85.78.642-1.927 3.394-1.927 4.037 0 12.844 37.614 28.715 84.22 28.715 85.78 0 2.293 22.477-56.881 29.266-74.771.642-1.743 3.028-1.651 3.67 0 5.504 15.688 22.385 63.303 28.532 74.77 5.963 11.193 22.202-48.44 28.073-71.284.734-2.66 4.404-2.936 5.413-.367 12.386 31.376 55.872 142.569 58.257 155.963 2.569 14.68 47.248-101.009 52.66-115.137 42.202 52.66 67.524 119.45 67.524 192.202 0 112.385-60.276 210.642-150.276 264.312"/></svg>